# Object Export From Tinkercad Server 2015

mtllib obj.mtl

o obj_0
v 18.748 		-7.7264 		1.517
v 18.748 		-7.7264 		0.517
v 18.748 		-5.6264 		0.517
v 18.748 		-5.6264 		1.517
v 2.328 		-7.7264 		0.517
v 2.328 		-7.7264 		1.517
v 2.328 		-5.6264 		1.517
v 2.328 		-5.6264 		0.517
v -3.386 		-4.4804 		2.103
v -6.987 		-5.2964 		2.103
v -7.491 		-5.5064 		2.103
v -7.911 		-5.7284 		2.103
v -8.241 		-5.9594 		2.103
v -4.228 		-4.6064 		2.103
v -5.016 		-4.7524 		2.103
v -5.743 		-4.9174 		2.103
v -6.402 		-5.0994 		2.103
v -6.402 		-8.2714 		2.103
v -5.743 		-8.4534 		2.103
v -5.016 		-8.6174 		2.103
v -4.228 		-8.7634 		2.103
v -3.386 		-8.8904 		2.103
v 0.348 		-4.1974 		2.103
v 1.328 		-4.1854 		2.103
v 1.328 		-4.1854 		2.097
v -0.623 		-4.2334 		2.103
v -1.575 		-4.2924 		2.103
v -2.499 		-4.3754 		2.103
v -2.499 		-8.9944 		2.103
v -1.575 		-9.0774 		2.103
v -0.623 		-9.1374 		2.103
v 0.348 		-9.1734 		2.103
v 1.328 		-9.1854 		2.103
v 1.328 		-9.1834 		2.097
v 1.328 		-4.1834 		2.097
v 2.328 		-4.1834 		2.097
v 2.328 		-9.1834 		2.097
v -6.987 		-8.0744 		0.003
v -7.491 		-7.8634 		0.003
v -7.911 		-7.6414 		0.003
v -8.241 		-7.4104 		0.003
v -8.48 		-7.1724 		0.003
v -8.624 		-6.9304 		0.003
v -8.672 		-6.6854 		0.003
v -8.624 		-6.4404 		0.003
v -8.48 		-6.1974 		0.003
v -8.241 		-5.9594 		0.003
v -7.911 		-5.7284 		0.003
v -7.491 		-5.5064 		0.003
v -6.987 		-5.2964 		0.003
v -3.386 		-8.8904 		0.003
v -4.228 		-8.7634 		0.003
v -5.016 		-8.6174 		0.003
v -5.743 		-8.4534 		0.003
v -6.402 		-8.2714 		0.003
v -6.402 		-5.0994 		0.003
v -5.743 		-4.9174 		0.003
v -5.016 		-4.7524 		0.003
v -4.228 		-4.6064 		0.003
v -3.386 		-4.4804 		0.003
v 1.328 		-9.1854 		0.003
v 0.348 		-9.1734 		0.003
v -0.623 		-9.1374 		0.003
v -1.575 		-9.0774 		0.003
v -2.499 		-8.9944 		0.003
v -2.499 		-4.3754 		0.003
v -1.575 		-4.2924 		0.003
v -0.623 		-4.2334 		0.003
v 0.348 		-4.1974 		0.003
v 1.328 		-4.1854 		0.003
v 1.328 		-9.1834 		0.003
v 1.328 		-4.1834 		-0.003
v 1.328 		-9.1834 		-0.003
v 2.328 		-9.1834 		-0.003
v 2.328 		-4.1834 		-0.003
v -8.48 		-6.1974 		2.103
v -8.624 		-6.4404 		2.103
v -8.672 		-6.6854 		2.103
v -8.624 		-6.9304 		2.103
v -8.48 		-7.1724 		2.103
v -8.241 		-7.4104 		2.103
v -7.911 		-7.6414 		2.103
v -7.491 		-7.8634 		2.103
v -6.987 		-8.0744 		2.103
# 84 vertices

g group_0_15277357

usemtl color_15277357
s 0

f 1 	2 	3
f 1 	3 	4
f 74 	5 	6
f 6 	5 	2
f 6 	2 	1
f 8 	75 	7
f 8 	7 	4
f 8 	4 	3
f 57 	16 	15
f 57 	56 	16
f 24 	25 	23
f 29 	64 	30
f 64 	31 	30
f 61 	33 	32
f 33 	61 	34
f 24 	33 	34
f 24 	34 	25
f 72 	70 	35
f 74 	6 	37
f 36 	37 	6
f 36 	6 	7
f 34 	71 	37
f 35 	36 	72
f 34 	37 	25
f 37 	36 	25
f 35 	25 	36
f 6 	1 	4
f 6 	4 	7
f 44 	45 	43
f 42 	43 	45
f 45 	46 	42
f 46 	47 	42
f 41 	42 	47
f 40 	41 	47
f 47 	48 	40
f 39 	40 	48
f 48 	49 	39
f 49 	50 	39
f 38 	39 	50
f 56 	57 	54
f 53 	54 	57
f 50 	56 	55
f 38 	50 	55
f 54 	55 	56
f 57 	58 	53
f 52 	53 	58
f 58 	59 	52
f 59 	60 	52
f 51 	52 	60
f 66 	65 	60
f 65 	67 	64
f 67 	68 	64
f 63 	64 	68
f 51 	60 	65
f 66 	67 	65
f 62 	63 	68
f 68 	69 	62
f 71 	62 	69
f 70 	71 	69
f 61 	62 	71
f 81 	80 	41
f 15 	14 	58
f 70 	69 	25
f 22 	51 	29
f 65 	64 	29
f 31 	64 	63
f 63 	62 	32
f 63 	32 	31
f 32 	62 	61
f 34 	61 	71
f 71 	70 	73
f 72 	73 	70
f 25 	35 	70
f 8 	5 	75
f 36 	7 	75
f 74 	75 	5
f 74 	37 	71
f 73 	74 	71
f 72 	36 	75
f 75 	74 	73
f 75 	73 	72
f 8 	3 	2
f 8 	2 	5
f 49 	11 	10
f 49 	10 	50
f 49 	48 	11
f 12 	11 	48
f 12 	48 	13
f 47 	13 	48
f 46 	13 	47
f 78 	45 	44
f 79 	78 	43
f 44 	43 	78
f 43 	42 	80
f 43 	80 	79
f 42 	41 	80
f 81 	41 	40
f 83 	40 	39
f 39 	38 	84
f 39 	84 	83
f 38 	55 	84
f 28 	66 	9
f 60 	9 	66
f 9 	60 	14
f 59 	14 	60
f 59 	58 	14
f 15 	58 	57
f 17 	16 	56
f 50 	17 	56
f 18 	84 	55
f 18 	55 	19
f 54 	19 	55
f 20 	19 	53
f 54 	53 	19
f 53 	52 	21
f 53 	21 	20
f 22 	21 	51
f 52 	51 	21
f 65 	29 	51
f 69 	23 	25
f 69 	68 	23
f 26 	23 	68
f 26 	68 	27
f 67 	27 	68
f 67 	66 	27
f 28 	27 	66
f 78 	79 	77
f 79 	80 	77
f 76 	77 	80
f 13 	76 	80
f 80 	81 	13
f 81 	82 	13
f 12 	13 	82
f 11 	12 	82
f 82 	83 	11
f 10 	11 	83
f 83 	84 	10
f 17 	10 	84
f 18 	19 	16
f 19 	20 	16
f 84 	18 	17
f 16 	17 	18
f 15 	16 	20
f 14 	15 	20
f 20 	21 	14
f 9 	14 	21
f 9 	21 	22
f 9 	22 	29
f 28 	29 	27
f 29 	30 	27
f 26 	27 	30
f 9 	29 	28
f 30 	31 	26
f 31 	32 	26
f 23 	26 	32
f 24 	23 	32
f 24 	32 	33
f 17 	50 	10
f 46 	76 	13
f 77 	76 	45
f 46 	45 	76
f 45 	78 	77
f 81 	40 	82
f 40 	83 	82
# 164 faces

 #end of obj_0

o obj_1
v 18.6641 		2.9996 		1.517
v 18.6641 		2.9996 		0.517
v 18.6641 		5.0996 		0.517
v 18.6641 		5.0996 		1.517
v 2.2441 		2.9996 		0.517
v 2.2441 		2.9996 		1.517
v 2.2441 		5.0996 		1.517
v 2.2441 		5.0996 		0.517
v -3.4699 		6.2456 		2.103
v -7.0709 		5.4296 		2.103
v -7.5749 		5.2196 		2.103
v -7.9949 		4.9976 		2.103
v -8.3249 		4.7666 		2.103
v -4.3119 		6.1196 		2.103
v -5.0999 		5.9736 		2.103
v -5.8269 		5.8086 		2.103
v -6.4859 		5.6266 		2.103
v -6.4859 		2.4546 		2.103
v -5.8269 		2.2726 		2.103
v -5.0999 		2.1086 		2.103
v -4.3119 		1.9626 		2.103
v -3.4699 		1.8356 		2.103
v 0.2641 		6.5286 		2.103
v 1.2441 		6.5406 		2.103
v 1.2441 		6.5406 		2.097
v -0.7069 		6.4926 		2.103
v -1.6589 		6.4336 		2.103
v -2.5829 		6.3506 		2.103
v -2.5829 		1.7316 		2.103
v -1.6589 		1.6486 		2.103
v -0.7069 		1.5886 		2.103
v 0.2641 		1.5526 		2.103
v 1.2441 		1.5406 		2.103
v 1.2441 		1.5426 		2.097
v 1.2441 		6.5426 		2.097
v 2.2441 		6.5426 		2.097
v 2.2441 		1.5426 		2.097
v -7.0709 		2.6516 		0.003
v -7.5749 		2.8626 		0.003
v -7.9949 		3.0846 		0.003
v -8.3249 		3.3156 		0.003
v -8.5639 		3.5536 		0.003
v -8.7079 		3.7956 		0.003
v -8.7559 		4.0406 		0.003
v -8.7079 		4.2856 		0.003
v -8.5639 		4.5286 		0.003
v -8.3249 		4.7666 		0.003
v -7.9949 		4.9976 		0.003
v -7.5749 		5.2196 		0.003
v -7.0709 		5.4296 		0.003
v -3.4699 		1.8356 		0.003
v -4.3119 		1.9626 		0.003
v -5.0999 		2.1086 		0.003
v -5.8269 		2.2726 		0.003
v -6.4859 		2.4546 		0.003
v -6.4859 		5.6266 		0.003
v -5.8269 		5.8086 		0.003
v -5.0999 		5.9736 		0.003
v -4.3119 		6.1196 		0.003
v -3.4699 		6.2456 		0.003
v 1.2441 		1.5406 		0.003
v 0.2641 		1.5526 		0.003
v -0.7069 		1.5886 		0.003
v -1.6589 		1.6486 		0.003
v -2.5829 		1.7316 		0.003
v -2.5829 		6.3506 		0.003
v -1.6589 		6.4336 		0.003
v -0.7069 		6.4926 		0.003
v 0.2641 		6.5286 		0.003
v 1.2441 		6.5406 		0.003
v 1.2441 		1.5426 		0.003
v 1.2441 		6.5426 		-0.003
v 1.2441 		1.5426 		-0.003
v 2.2441 		1.5426 		-0.003
v 2.2441 		6.5426 		-0.003
v -8.5639 		4.5286 		2.103
v -8.7079 		4.2856 		2.103
v -8.7559 		4.0406 		2.103
v -8.7079 		3.7956 		2.103
v -8.5639 		3.5536 		2.103
v -8.3249 		3.3156 		2.103
v -7.9949 		3.0846 		2.103
v -7.5749 		2.8626 		2.103
v -7.0709 		2.6516 		2.103
# 84 vertices

g group_1_15277357

usemtl color_15277357
s 0

f 85 	86 	87
f 85 	87 	88
f 158 	89 	90
f 90 	89 	86
f 90 	86 	85
f 92 	159 	91
f 92 	91 	88
f 92 	88 	87
f 141 	100 	99
f 141 	140 	100
f 108 	109 	107
f 113 	148 	114
f 148 	115 	114
f 145 	117 	116
f 117 	145 	118
f 108 	117 	118
f 108 	118 	109
f 156 	154 	119
f 158 	90 	121
f 120 	121 	90
f 120 	90 	91
f 118 	155 	121
f 119 	120 	156
f 118 	121 	109
f 121 	120 	109
f 119 	109 	120
f 90 	85 	88
f 90 	88 	91
f 128 	129 	127
f 126 	127 	129
f 129 	130 	126
f 130 	131 	126
f 125 	126 	131
f 124 	125 	131
f 131 	132 	124
f 123 	124 	132
f 132 	133 	123
f 133 	134 	123
f 122 	123 	134
f 140 	141 	138
f 137 	138 	141
f 134 	140 	139
f 122 	134 	139
f 138 	139 	140
f 141 	142 	137
f 136 	137 	142
f 142 	143 	136
f 143 	144 	136
f 135 	136 	144
f 150 	149 	144
f 149 	151 	148
f 151 	152 	148
f 147 	148 	152
f 135 	144 	149
f 150 	151 	149
f 146 	147 	152
f 152 	153 	146
f 155 	146 	153
f 154 	155 	153
f 145 	146 	155
f 165 	164 	125
f 99 	98 	142
f 154 	153 	109
f 106 	135 	113
f 149 	148 	113
f 115 	148 	147
f 147 	146 	116
f 147 	116 	115
f 116 	146 	145
f 118 	145 	155
f 155 	154 	157
f 156 	157 	154
f 109 	119 	154
f 92 	89 	159
f 120 	91 	159
f 158 	159 	89
f 158 	121 	155
f 157 	158 	155
f 156 	120 	159
f 159 	158 	157
f 159 	157 	156
f 92 	87 	86
f 92 	86 	89
f 133 	95 	94
f 133 	94 	134
f 133 	132 	95
f 96 	95 	132
f 96 	132 	97
f 131 	97 	132
f 130 	97 	131
f 162 	129 	128
f 163 	162 	127
f 128 	127 	162
f 127 	126 	164
f 127 	164 	163
f 126 	125 	164
f 165 	125 	124
f 167 	124 	123
f 123 	122 	168
f 123 	168 	167
f 122 	139 	168
f 112 	150 	93
f 144 	93 	150
f 93 	144 	98
f 143 	98 	144
f 143 	142 	98
f 99 	142 	141
f 101 	100 	140
f 134 	101 	140
f 102 	168 	139
f 102 	139 	103
f 138 	103 	139
f 104 	103 	137
f 138 	137 	103
f 137 	136 	105
f 137 	105 	104
f 106 	105 	135
f 136 	135 	105
f 149 	113 	135
f 153 	107 	109
f 153 	152 	107
f 110 	107 	152
f 110 	152 	111
f 151 	111 	152
f 151 	150 	111
f 112 	111 	150
f 162 	163 	161
f 163 	164 	161
f 160 	161 	164
f 97 	160 	164
f 164 	165 	97
f 165 	166 	97
f 96 	97 	166
f 95 	96 	166
f 166 	167 	95
f 94 	95 	167
f 167 	168 	94
f 101 	94 	168
f 102 	103 	100
f 103 	104 	100
f 168 	102 	101
f 100 	101 	102
f 99 	100 	104
f 98 	99 	104
f 104 	105 	98
f 93 	98 	105
f 93 	105 	106
f 93 	106 	113
f 112 	113 	111
f 113 	114 	111
f 110 	111 	114
f 93 	113 	112
f 114 	115 	110
f 115 	116 	110
f 107 	110 	116
f 108 	107 	116
f 108 	116 	117
f 101 	134 	94
f 130 	160 	97
f 161 	160 	129
f 130 	129 	160
f 129 	162 	161
f 165 	124 	166
f 124 	167 	166
# 164 faces

 #end of obj_1

