# Object Export From Tinkercad Server 2015

mtllib obj.mtl

o obj_0
v 22.745 		18.805 		16.874
v 23.022 		18.805 		16.892
v 22.47 		18.805 		16.842
v 25.454 		18.805 		16.451
v 25.197 		18.805 		16.553
v 24.934 		18.805 		16.642
v 24.668 		18.805 		16.717
v 28.103 		18.805 		19.28
v 23.298 		18.805 		16.897
v 20.392 		20.805 		16.116
v 20.157 		20.805 		15.97
v 19.929 		20.805 		15.812
v 20.882 		20.805 		16.374
v 20.634 		20.805 		16.251
v 26.426 		20.805 		15.922
v 26.193 		20.805 		16.072
v 25.953 		20.805 		16.211
v 25.707 		20.805 		16.337
v 22.47 		20.805 		16.842
v 22.197 		20.805 		16.797
v 21.926 		20.805 		16.738
v 21.659 		20.805 		16.667
v 21.395 		20.805 		16.582
v 21.136 		20.805 		16.484
v 24.398 		20.805 		16.78
v 24.126 		20.805 		16.83
v 23.851 		20.805 		16.866
v 23.575 		20.805 		16.888
v 23.298 		20.805 		16.897
v 23.022 		20.805 		16.892
v 22.745 		20.805 		16.874
v 25.454 		20.805 		16.451
v 25.197 		20.805 		16.553
v 24.934 		20.805 		16.642
v 24.668 		20.805 		16.717
v 20.392 		18.805 		16.116
v 20.157 		18.805 		15.97
v 19.929 		18.805 		15.812
v 20.882 		18.805 		16.374
v 20.634 		18.805 		16.251
v 26.426 		18.805 		15.922
v 26.193 		18.805 		16.072
v 25.953 		18.805 		16.211
v 25.707 		18.805 		16.337
v 22.197 		18.805 		16.797
v 21.926 		18.805 		16.738
v 21.659 		18.805 		16.667
v 21.395 		18.805 		16.582
v 21.136 		18.805 		16.484
v 24.398 		18.805 		16.78
v 24.126 		18.805 		16.83
v 23.851 		18.805 		16.866
v 23.575 		18.805 		16.888
v 20.392 		18.7 		16.116
v 20.157 		18.7 		15.97
v 19.929 		18.7 		15.812
v 20.804 		20.805 		6.173
v 20.558 		20.805 		6.299
v 21.056 		20.805 		6.059
v 21.314 		20.805 		5.957
v 20.882 		18.7 		16.374
v 20.634 		18.7 		16.251
v 21.576 		20.805 		5.868
v 21.843 		20.805 		5.793
v 26.426 		18.7 		15.922
v 26.193 		18.7 		16.072
v 18.137 		18.805 		8.882
v 25.953 		18.7 		16.211
v 25.707 		18.7 		16.337
v 18.259 		18.805 		8.633
v 18.394 		18.805 		8.391
v 22.47 		18.7 		16.842
v 22.197 		18.7 		16.797
v 21.926 		18.7 		16.738
v 18.137 		20.805 		8.882
v 21.659 		18.7 		16.667
v 18.259 		20.805 		8.633
v 21.395 		18.7 		16.582
v 18.394 		20.805 		8.391
v 21.136 		18.7 		16.484
v 18.438 		18.805 		14.193
v 24.398 		18.7 		16.78
v 24.126 		18.7 		16.83
v 23.851 		18.7 		16.866
v 23.575 		18.7 		16.888
v 23.298 		18.7 		16.897
v 23.022 		18.7 		16.892
v 22.745 		18.7 		16.874
v 25.454 		18.7 		16.451
v 25.197 		18.7 		16.553
v 24.934 		18.7 		16.642
v 24.668 		18.7 		16.717
v 20.392 		9.103 		16.116
v 20.157 		9.103 		15.97
v 19.929 		9.103 		15.812
v 19.053 		9.103 		15.892
v 19.285 		9.103 		16.092
v 19.527 		9.103 		16.281
v 20.882 		9.103 		16.374
v 20.634 		9.103 		16.251
v 26.426 		9.103 		15.922
v 26.193 		9.103 		16.072
v 25.953 		9.103 		16.211
v 25.707 		9.103 		16.337
v 26.983 		9.103 		16.281
v 27.225 		9.103 		16.092
v 27.457 		9.103 		15.892
v 22.47 		9.103 		16.842
v 22.197 		9.103 		16.797
v 21.926 		9.103 		16.738
v 21.659 		9.103 		16.667
v 21.395 		9.103 		16.582
v 21.136 		9.103 		16.484
v 24.188 		25.315 		14.045
v 21.504 		36.635 		13.6588
v 21.479 		36.635 		13.643
v 21.35 		36.635 		13.552
v 21.226 		36.635 		13.456
v 21.107 		36.635 		13.353
v 20.994 		36.635 		13.245
v 24.337 		25.315 		13.995
v 24.036 		25.315 		14.087
v 23.883 		25.315 		14.121
v 23.728 		25.315 		14.148
v 23.572 		25.315 		14.167
v 20.885 		36.635 		13.131
v 20.782 		36.635 		13.012
v 20.686 		36.635 		12.888
v 20.595 		36.635 		12.759
v 20.511 		36.635 		12.626
v 20.48 		36.635 		12.5712
v 22.48 		36.635 		14.087
v 22.328 		36.635 		14.045
v 22.179 		36.635 		13.995
v 22.032 		36.635 		13.939
v 21.889 		36.635 		13.875
v 21.748 		36.635 		13.804
v 21.612 		36.635 		13.727
v 24.484 		36.635 		13.939
v 24.337 		36.635 		13.995
v 24.188 		36.635 		14.045
v 24.036 		36.635 		14.087
v 23.883 		36.635 		14.121
v 23.728 		36.635 		14.148
v 23.572 		36.635 		14.167
v 23.415 		36.635 		14.179
v 23.415 		25.315 		14.179
v 23.258 		25.315 		14.183
v 23.101 		25.315 		14.179
v 22.944 		25.315 		14.167
v 22.788 		25.315 		14.148
v 22.633 		25.315 		14.121
v 24.904 		25.315 		8.233
v 25.037 		25.315 		8.317
v 25.166 		25.315 		8.408
v 25.29 		25.315 		8.504
v 25.409 		25.315 		8.607
v 25.523 		25.315 		8.715
v 25.631 		25.315 		8.829
v 25.734 		25.315 		8.948
v 25.83 		25.315 		9.072
v 25.921 		25.315 		9.201
v 26.005 		25.315 		9.334
v 26.082 		25.315 		9.47
v 26.153 		25.315 		9.611
v 26.217 		25.315 		9.754
v 26.273 		25.315 		9.901
v 26.323 		25.315 		10.05
v 26.365 		25.315 		10.202
v 26.399 		25.315 		10.355
v 26.426 		25.315 		10.51
v 26.445 		25.315 		10.666
v 26.457 		25.315 		10.823
v 26.461 		25.315 		10.98
v 26.457 		25.315 		11.137
v 26.445 		25.315 		11.294
v 26.426 		25.315 		11.45
v 26.399 		25.315 		11.605
v 26.365 		25.315 		11.758
v 26.323 		25.315 		11.91
v 26.273 		25.315 		12.059
v 26.217 		25.315 		12.206
v 26.153 		25.315 		12.349
v 26.082 		25.315 		12.49
v 26.005 		25.315 		12.626
v 25.921 		25.315 		12.759
v 25.83 		25.315 		12.888
v 25.734 		25.315 		13.012
v 25.631 		25.315 		13.131
v 25.523 		25.315 		13.245
v 25.409 		25.315 		13.353
v 25.29 		25.315 		13.456
v 25.166 		25.315 		13.552
v 25.037 		25.315 		13.643
v 24.904 		25.315 		13.727
v 24.768 		25.315 		13.804
v 24.627 		25.315 		13.875
v 23.258 		25.315 		7.778
v 20.056 		25.315 		10.98
v 21.748 		25.315 		8.156
v 21.889 		25.315 		8.085
v 22.032 		25.315 		8.021
v 22.179 		25.315 		7.965
v 22.328 		25.315 		7.915
v 22.48 		25.315 		7.873
v 23.415 		25.315 		7.781
v 23.572 		25.315 		7.793
v 23.728 		25.315 		7.812
v 23.883 		25.315 		7.839
v 24.036 		25.315 		7.873
v 24.188 		25.315 		7.915
v 24.337 		25.315 		7.965
v 24.484 		25.315 		8.021
v 22.633 		25.315 		7.839
v 22.788 		25.315 		7.812
v 22.944 		25.315 		7.793
v 23.101 		25.315 		7.781
v 24.627 		25.315 		8.085
v 24.768 		25.315 		8.156
v 20.152 		25.315 		10.202
v 20.193 		25.315 		10.05
v 20.243 		25.315 		9.901
v 20.299 		25.315 		9.754
v 20.363 		25.315 		9.611
v 20.434 		25.315 		9.47
v 20.299 		25.315 		12.206
v 20.243 		25.315 		12.059
v 20.193 		25.315 		11.91
v 20.152 		25.315 		11.758
v 20.117 		25.315 		11.605
v 20.09 		25.315 		11.45
v 20.071 		25.315 		11.294
v 20.059 		25.315 		11.137
v 20.059 		25.315 		10.823
v 20.071 		25.315 		10.666
v 20.09 		25.315 		10.51
v 20.117 		25.315 		10.355
v 21.748 		58.635 		8.156
v 20.511 		25.315 		9.334
v 21.889 		58.635 		8.085
v 20.595 		25.315 		9.201
v 22.032 		58.635 		8.021
v 20.686 		25.315 		9.072
v 22.179 		58.635 		7.965
v 22.328 		58.635 		7.915
v 20.782 		25.315 		8.948
v 22.48 		58.635 		7.873
v 20.885 		25.315 		8.829
v 20.994 		25.315 		8.715
v 23.415 		58.635 		7.781
v 23.258 		58.635 		7.778
v 21.107 		25.315 		8.607
v 23.572 		58.635 		7.793
v 21.226 		25.315 		8.504
v 23.728 		58.635 		7.812
v 21.35 		25.315 		8.408
v 23.883 		58.635 		7.839
v 21.479 		25.315 		8.317
v 24.036 		58.635 		7.873
v 21.612 		25.315 		8.233
v 24.188 		58.635 		7.915
v 24.337 		58.635 		7.965
v 24.484 		58.635 		8.021
v 20.434 		25.315 		12.49
v 20.363 		25.315 		12.349
v 22.633 		58.635 		7.839
v 22.788 		58.635 		7.812
v 21.479 		25.315 		13.643
v 22.944 		58.635 		7.793
v 21.35 		25.315 		13.552
v 23.101 		58.635 		7.781
v 21.226 		25.315 		13.456
v 21.107 		25.315 		13.353
v 24.627 		58.635 		8.085
v 24.768 		58.635 		8.156
v 20.994 		25.315 		13.245
v 20.885 		25.315 		13.131
v 20.152 		58.635 		10.202
v 20.782 		25.315 		13.012
v 20.193 		58.635 		10.05
v 20.686 		25.315 		12.888
v 20.243 		58.635 		9.901
v 20.595 		25.315 		12.759
v 20.299 		58.635 		9.754
v 20.363 		58.635 		9.611
v 20.511 		25.315 		12.626
v 20.434 		58.635 		9.47
v 22.48 		25.315 		14.087
v 20.299 		58.635 		12.206
v 22.328 		25.315 		14.045
v 20.243 		58.635 		12.059
v 22.179 		25.315 		13.995
v 20.193 		58.635 		11.91
v 22.032 		25.315 		13.939
v 20.152 		58.635 		11.758
v 21.889 		25.315 		13.875
v 20.117 		58.635 		11.605
v 21.748 		25.315 		13.804
v 20.09 		58.635 		11.45
v 21.612 		25.315 		13.727
v 20.071 		58.635 		11.294
v 20.059 		58.635 		11.137
v 20.056 		58.635 		10.98
v 20.059 		58.635 		10.823
v 20.071 		58.635 		10.666
v 20.09 		58.635 		10.51
v 20.117 		58.635 		10.355
v 20.511 		58.635 		9.334
v 20.595 		58.635 		9.201
v 20.686 		58.635 		9.072
v 20.782 		58.635 		8.948
v 20.885 		58.635 		8.829
v 20.994 		58.635 		8.715
v 21.107 		58.635 		8.607
v 21.226 		58.635 		8.504
v 21.35 		58.635 		8.408
v 21.479 		58.635 		8.317
v 58.003 		25.315 		3.301
v 58.003 		25.315 		19.301
v 58.003 		37.015 		19.301
v 58.003 		37.015 		3.301
v 21.612 		58.635 		8.233
v 58.001 		37.01 		0
v 58.001 		37.01 		2
v 58.001 		35.163 		2
v 58.001 		29.01 		2
v 58.001 		29.01 		0
v 23.258 		36.635 		14.183
v 58.001 		7 		2
v 58.001 		7 		0
v 58.001 		15 		0
v 58.001 		15 		2
v 58.001 		8.853 		2
v 58.001 		7.003 		2
v 58.001 		37.013 		2
v 58.001 		37.013 		3.3
v 58.001 		35.163 		3.3
v 58.001 		7.003 		3.3
v 23.101 		36.635 		14.179
v 58.001 		8.853 		3.3
v 58 		7 		3.301
v 58 		7 		19.301
v 58 		18.7 		19.301
v 58 		18.7 		3.301
v 57.993 		18.7 		3.301
v 57.993 		18.7 		19.28
v 22.944 		36.635 		14.167
v 57.993 		7.005 		3.301
v 22.788 		36.635 		14.148
v 57.993 		25.315 		19.28
v 57.993 		25.315 		3.301
v 22.633 		36.635 		14.121
v 57.993 		37.005 		3.301
v 57.993 		7.005 		3.3
v 57.993 		8.853 		3.3
v 57.993 		37.005 		3.3
v 57.993 		35.163 		3.3
v 24.484 		25.315 		13.939
v 24.904 		36.635 		8.233
v 24.8316 		36.635 		8.192
v 25.037 		36.635 		8.317
v 25.166 		36.635 		8.408
v 25.29 		36.635 		8.504
v 25.409 		36.635 		8.607
v 25.523 		36.635 		8.715
v 25.631 		36.635 		8.829
v 25.734 		36.635 		8.948
v 25.83 		36.635 		9.072
v 25.921 		36.635 		9.201
v 25.9305 		36.635 		9.216
v 26.005 		36.635 		9.334
v 26.082 		36.635 		9.47
v 26.153 		36.635 		9.611
v 26.217 		36.635 		9.754
v 26.273 		36.635 		9.901
v 26.323 		36.635 		10.05
v 26.365 		36.635 		10.202
v 26.3734 		36.635 		10.24
v 26.399 		36.635 		10.355
v 26.426 		36.635 		10.51
v 26.445 		36.635 		10.666
v 26.457 		36.635 		10.823
v 26.461 		36.635 		10.98
v 26.457 		36.635 		11.137
v 26.445 		36.635 		11.294
v 26.426 		36.635 		11.45
v 26.399 		36.635 		11.605
v 26.365 		36.635 		11.758
v 26.323 		36.635 		11.91
v 26.273 		36.635 		12.059
v 26.217 		36.635 		12.206
v 26.1803 		36.635 		12.288
v 18.3 		18.805 		13.953
v 18.173 		18.805 		13.706
v 19.709 		18.805 		15.644
v 19.498 		18.805 		15.464
v 19.296 		18.805 		15.275
v 19.104 		18.805 		15.076
v 18.921 		18.805 		14.868
v 18.749 		18.805 		14.651
v 18.588 		18.805 		14.425
v 18.438 		20.805 		14.193
v 18.3 		20.805 		13.953
v 18.173 		20.805 		13.706
v 19.709 		20.805 		15.644
v 19.498 		20.805 		15.464
v 19.296 		20.805 		15.275
v 19.104 		20.805 		15.076
v 18.921 		20.805 		14.868
v 18.749 		20.805 		14.651
v 18.588 		20.805 		14.425
v 24.852 		18.805 		5.843
v 25.116 		18.805 		5.928
v 25.375 		18.805 		6.026
v 25.629 		18.805 		6.136
v 25.877 		18.805 		6.259
v 26.119 		18.805 		6.394
v 26.354 		18.805 		6.54
v 26.582 		18.805 		6.698
v 26.801 		18.805 		6.866
v 27.012 		18.805 		7.046
v 27.214 		18.805 		7.235
v 27.407 		18.805 		7.434
v 27.589 		18.805 		7.642
v 27.761 		18.805 		7.859
v 27.923 		18.805 		8.085
v 24.852 		20.805 		5.843
v 25.116 		20.805 		5.928
v 25.375 		20.805 		6.026
v 25.629 		20.805 		6.136
v 25.877 		20.805 		6.259
v 26.119 		20.805 		6.394
v 26.354 		20.805 		6.54
v 26.582 		20.805 		6.698
v 26.801 		20.805 		6.866
v 27.012 		20.805 		7.046
v 27.214 		20.805 		7.235
v 27.407 		20.805 		7.434
v 27.589 		20.805 		7.642
v 27.761 		20.805 		7.859
v 28.622 		7 		8.038
v 27.923 		20.805 		8.085
v 28.458 		7 		7.779
v 28.281 		7 		7.527
v 28.073 		18.805 		8.317
v 28.073 		20.805 		8.317
v 27.97 		18.805 		14.354
v 27.813 		18.805 		14.581
v 27.644 		18.805 		14.801
v 29.445 		7 		12.173
v 27.465 		18.805 		15.012
v 29.482 		7 		11.868
v 27.275 		18.805 		15.214
v 29.505 		7 		11.562
v 27.076 		18.805 		15.407
v 29.513 		7 		11.255
v 29.505 		7 		10.948
v 26.868 		18.805 		15.589
v 29.482 		7 		10.642
v 26.651 		18.805 		15.761
v 29.445 		7 		10.337
v 29.392 		7 		10.034
v 29.325 		7 		9.735
v 29.243 		7 		9.439
v 29.147 		7 		9.147
v 29.036 		7 		8.86
v 27.97 		20.805 		14.354
v 28.912 		7 		8.58
v 28.774 		7 		8.305
v 27.813 		20.805 		14.581
v 27.644 		20.805 		14.801
v 28.281 		7 		14.983
v 28.458 		7 		14.731
v 27.465 		20.805 		15.012
v 28.622 		7 		14.472
v 27.275 		20.805 		15.214
v 27.076 		20.805 		15.407
v 28.774 		7 		14.205
v 28.912 		7 		13.93
v 26.868 		20.805 		15.589
v 29.036 		7 		13.65
v 26.651 		20.805 		15.761
v 29.147 		7 		13.363
v 29.243 		7 		13.071
v 29.325 		7 		12.775
v 29.392 		7 		12.476
v 18.54 		18.7 		8.156
v 18.698 		18.7 		7.929
v 18.867 		18.7 		7.709
v 19.046 		18.7 		7.498
v 19.235 		18.7 		7.296
v 19.435 		18.7 		7.103
v 28.103 		7 		3.301
v 19.643 		18.7 		6.921
v 19.86 		18.7 		6.749
v 20.085 		18.7 		6.588
v 28.211 		18.805 		8.557
v 20.318 		18.7 		6.438
v 28.337 		18.805 		8.804
v 28.451 		18.805 		9.056
v 28.553 		18.805 		9.314
v 20.558 		18.7 		6.299
v 28.642 		18.805 		9.576
v 20.804 		18.7 		6.173
v 21.056 		18.7 		6.059
v 21.314 		18.7 		5.957
v 21.576 		18.7 		5.868
v 21.843 		18.7 		5.793
v 18.137 		18.7 		8.882
v 18.259 		18.7 		8.633
v 28.718 		18.805 		9.842
v 18.394 		18.7 		8.391
v 28.781 		18.805 		10.112
v 28.83 		18.805 		10.385
v 28.866 		18.805 		10.659
v 28.889 		18.805 		10.935
v 18.438 		18.7 		14.193
v 18.3 		18.7 		13.953
v 28.897 		18.805 		11.212
v 18.173 		18.7 		13.706
v 28.893 		18.805 		11.489
v 28.874 		18.805 		11.765
v 28.843 		18.805 		12.04
v 28.667 		18.805 		12.852
v 22.48 		23.215 		14.087
v 19.709 		18.7 		15.644
v 22.328 		23.215 		14.045
v 19.498 		18.7 		15.464
v 19.296 		18.7 		15.275
v 24.188 		23.215 		14.045
v 24.036 		23.215 		14.087
v 23.883 		23.215 		14.121
v 23.728 		23.215 		14.148
v 23.572 		23.215 		14.167
v 23.415 		23.215 		14.179
v 23.258 		23.215 		14.183
v 23.101 		23.215 		14.179
v 22.944 		23.215 		14.167
v 22.788 		23.215 		14.148
v 22.633 		23.215 		14.121
v 26.153 		36.635 		12.349
v 26.082 		36.635 		12.49
v 26.005 		36.635 		12.626
v 25.921 		36.635 		12.759
v 25.83 		36.635 		12.888
v 25.734 		36.635 		13.012
v 25.631 		36.635 		13.131
v 25.523 		36.635 		13.245
v 21.889 		24.997 		8.085
v 25.4523 		36.635 		13.312
v 25.409 		36.635 		13.353
v 25.29 		36.635 		13.456
v 21.8225 		24.997 		8.1185
v 25.166 		36.635 		13.552
v 25.037 		36.635 		13.643
v 24.904 		36.635 		13.727
v 24.768 		36.635 		13.804
v 24.627 		36.635 		13.875
v 21.748 		25.215 		8.156
v 22.0119 		24.997 		8.03
v 21.889 		25.215 		8.085
v 22.032 		25.215 		8.021
v 22.179 		25.215 		7.965
v 22.328 		25.215 		7.915
v 22.48 		25.215 		7.873
v 23.728 		25.215 		7.812
v 23.883 		25.215 		7.839
v 24.036 		25.215 		7.873
v 24.188 		25.215 		7.915
v 24.337 		25.215 		7.965
v 24.484 		25.215 		8.021
v 21.914 		24.997 		8.059
v 22.633 		25.215 		7.839
v 22.788 		25.215 		7.812
v 22.788 		24.997 		7.812
v 24.627 		25.215 		8.085
v 24.768 		25.215 		8.156
v 22.6898 		24.997 		7.8291
v 20.152 		25.215 		10.202
v 20.193 		25.215 		10.05
v 20.243 		25.215 		9.901
v 20.299 		25.215 		9.754
v 20.363 		25.215 		9.611
v 22.8208 		24.997 		7.808
v 20.434 		25.215 		9.47
v 20.299 		25.215 		12.206
v 20.243 		25.215 		12.059
v 20.193 		25.215 		11.91
v 20.152 		25.215 		11.758
v 20.117 		25.215 		11.605
v 22.761 		24.997 		7.808
v 20.117 		25.215 		10.355
v 20.511 		25.215 		9.334
v 20.595 		25.215 		9.201
v 20.686 		25.215 		9.072
v 20.782 		25.215 		8.948
v 20.885 		25.215 		8.829
v 20.994 		25.215 		8.715
v 21.107 		25.215 		8.607
v 21.226 		25.215 		8.504
v 21.35 		25.215 		8.408
v 21.479 		25.215 		8.317
v 21.612 		25.215 		8.233
v 20.434 		25.215 		12.49
v 19.779 		9.103 		16.458
v 24.398 		9.103 		16.78
v 24.126 		9.103 		16.83
v 23.851 		9.103 		16.866
v 23.575 		9.103 		16.888
v 23.298 		9.103 		16.897
v 23.022 		9.103 		16.892
v 22.745 		9.103 		16.874
v 20.038 		9.103 		16.622
v 20.305 		9.103 		16.774
v 25.454 		9.103 		16.451
v 25.197 		9.103 		16.553
v 24.934 		9.103 		16.642
v 24.668 		9.103 		16.717
v 28.582 		18.805 		13.115
v 28.484 		18.805 		13.374
v 26.205 		9.103 		16.774
v 28.374 		18.805 		13.628
v 26.472 		9.103 		16.622
v 28.252 		18.805 		13.877
v 28.117 		18.805 		14.119
v 26.731 		9.103 		16.458
v 20.363 		25.215 		12.349
v 28.797 		18.805 		12.313
v 21.479 		25.215 		13.643
v 28.739 		18.805 		12.584
v 21.35 		25.215 		13.552
v 21.226 		25.215 		13.456
v 21.107 		25.215 		13.353
v 20.994 		25.215 		13.245
v 20.885 		25.215 		13.131
v 20.782 		25.215 		13.012
v 20.686 		25.215 		12.888
v 20.595 		25.215 		12.759
v 20.511 		25.215 		12.626
v 28.211 		20.805 		8.557
v 28.337 		20.805 		8.804
v 22.48 		25.215 		14.087
v 28.451 		20.805 		9.056
v 22.328 		25.215 		14.045
v 28.553 		20.805 		9.314
v 22.179 		25.215 		13.995
v 28.642 		20.805 		9.576
v 19.104 		18.7 		15.076
v 18.921 		18.7 		14.868
v 22.032 		25.215 		13.939
v 18.749 		18.7 		14.651
v 28.718 		20.805 		9.842
v 21.2156 		24.997 		8.513
v 28.781 		20.805 		10.112
v 18.588 		18.7 		14.425
v 21.139 		24.997 		8.5793
v 28.83 		20.805 		10.385
v 28.866 		20.805 		10.659
v 28.889 		20.805 		10.935
v 28.897 		20.805 		11.212
v 24.852 		18.7 		5.843
v 28.893 		20.805 		11.489
v 25.116 		18.7 		5.928
v 28.874 		20.805 		11.765
v 28.843 		20.805 		12.04
v 25.375 		18.7 		6.026
v 21.171 		24.997 		8.542
v 25.629 		18.7 		6.136
v 28.667 		20.805 		12.852
v 25.877 		18.7 		6.259
v 28.582 		20.805 		13.115
v 26.119 		18.7 		6.394
v 28.484 		20.805 		13.374
v 26.354 		18.7 		6.54
v 28.374 		20.805 		13.628
v 26.582 		18.7 		6.698
v 28.252 		20.805 		13.877
v 28.117 		20.805 		14.119
v 26.801 		18.7 		6.866
v 27.012 		18.7 		7.046
v 27.214 		18.7 		7.235
v 27.407 		18.7 		7.434
v 28.797 		20.805 		12.313
v 27.589 		18.7 		7.642
v 28.739 		20.805 		12.584
v 27.761 		18.7 		7.859
v 27.923 		18.7 		8.085
v 28.073 		18.7 		8.317
v 45.403 		20.805 		19.28
v 27.97 		18.7 		14.354
v 27.813 		18.7 		14.581
v 27.644 		18.7 		14.801
v 27.465 		18.7 		15.012
v 27.275 		18.7 		15.214
v 27.076 		18.7 		15.407
v 26.868 		18.7 		15.589
v 26.651 		18.7 		15.761
v 18.54 		9.103 		8.156
v 18.698 		9.103 		7.929
v 18.867 		9.103 		7.709
v 19.046 		9.103 		7.498
v 19.235 		9.103 		7.296
v 19.435 		9.103 		7.103
v 19.643 		9.103 		6.921
v 19.86 		9.103 		6.749
v 20.085 		9.103 		6.588
v 20.318 		9.103 		6.438
v 20.038 		9.103 		5.888
v 19.779 		9.103 		6.052
v 19.527 		9.103 		6.229
v 19.285 		9.103 		6.418
v 19.053 		9.103 		6.618
v 18.83 		9.103 		6.83
v 18.618 		9.103 		7.053
v 18.418 		9.103 		7.285
v 18.229 		9.103 		7.527
v 28.211 		18.7 		8.557
v 20.558 		9.103 		6.299
v 28.337 		18.7 		8.804
v 28.451 		18.7 		9.056
v 28.553 		18.7 		9.314
v 20.804 		9.103 		6.173
v 21.889 		25.215 		13.875
v 28.642 		18.7 		9.576
v 21.748 		25.215 		13.804
v 21.056 		9.103 		6.059
v 28.718 		18.7 		9.842
v 28.781 		18.7 		10.112
v 28.83 		18.7 		10.385
v 21.314 		9.103 		5.957
v 28.866 		18.7 		10.659
v 28.889 		18.7 		10.935
v 21.576 		9.103 		5.868
v 28.897 		18.7 		11.212
v 28.893 		18.7 		11.489
v 21.843 		9.103 		5.793
v 28.874 		18.7 		11.765
v 28.843 		18.7 		12.04
v 28.667 		18.7 		12.852
v 28.582 		18.7 		13.115
v 28.484 		18.7 		13.374
v 28.374 		18.7 		13.628
v 28.252 		18.7 		13.877
v 28.117 		18.7 		14.119
v 28.797 		18.7 		12.313
v 28.739 		18.7 		12.584
v 45.403 		18.7 		19.301
v 20.58 		9.103 		16.912
v 28.622 		9.103 		8.038
v 20.86 		9.103 		17.036
v 28.458 		9.103 		7.779
v 21.147 		9.103 		17.147
v 28.281 		9.103 		7.527
v 21.439 		9.103 		17.243
v 21.735 		9.103 		17.325
v 22.034 		9.103 		17.392
v 22.337 		9.103 		17.445
v 22.642 		9.103 		17.482
v 28.211 		9.103 		8.557
v 22.948 		9.103 		17.505
v 23.255 		9.103 		17.513
v 28.337 		9.103 		8.804
v 23.562 		9.103 		17.505
v 28.451 		9.103 		9.056
v 23.868 		9.103 		17.482
v 24.173 		9.103 		17.445
v 28.553 		9.103 		9.314
v 24.476 		9.103 		17.392
v 28.642 		9.103 		9.576
v 24.775 		9.103 		17.325
v 25.071 		9.103 		17.243
v 25.363 		9.103 		17.147
v 25.65 		9.103 		17.036
v 28.718 		9.103 		9.842
v 25.93 		9.103 		16.912
v 20.434 		58.635 		12.49
v 20.363 		58.635 		12.349
v 28.781 		9.103 		10.112
v 28.83 		9.103 		10.385
v 21.479 		58.635 		13.643
v 21.35 		58.635 		13.552
v 21.226 		58.635 		13.456
v 21.107 		58.635 		13.353
v 19.053 		7 		15.892
v 20.994 		58.635 		13.245
v 19.285 		7 		16.092
v 20.885 		58.635 		13.131
v 19.527 		7 		16.281
v 20.782 		58.635 		13.012
v 19.779 		7 		16.458
v 20.686 		58.635 		12.888
v 20.038 		7 		16.622
v 20.595 		58.635 		12.759
v 20.305 		7 		16.774
v 20.511 		58.635 		12.626
v 20.58 		7 		16.912
v 22.48 		58.635 		14.087
v 20.86 		7 		17.036
v 22.328 		58.635 		14.045
v 21.147 		7 		17.147
v 22.179 		58.635 		13.995
v 21.439 		7 		17.243
v 22.032 		58.635 		13.939
v 21.735 		7 		17.325
v 21.889 		58.635 		13.875
v 22.034 		7 		17.392
v 21.748 		58.635 		13.804
v 22.337 		7 		17.445
v 21.612 		58.635 		13.727
v 22.642 		7 		17.482
v 22.948 		7 		17.505
v 23.255 		7 		17.513
v 24.484 		58.635 		13.939
v 23.562 		7 		17.505
v 24.337 		58.635 		13.995
v 23.868 		7 		17.482
v 24.173 		7 		17.445
v 24.476 		7 		17.392
v 26.983 		7 		16.281
v 27.225 		7 		16.092
v 27.457 		7 		15.892
v 24.775 		7 		17.325
v 25.071 		7 		17.243
v 25.363 		7 		17.147
v 25.65 		7 		17.036
v 25.93 		7 		16.912
v 26.205 		7 		16.774
v 26.472 		7 		16.622
v 21.612 		25.215 		13.727
v 24.484 		25.215 		13.939
v 24.337 		25.215 		13.995
v 24.188 		25.215 		14.045
v 24.036 		25.215 		14.087
v 23.883 		25.215 		14.121
v 23.728 		25.215 		14.148
v 23.572 		25.215 		14.167
v 23.415 		25.215 		14.179
v 23.258 		25.215 		14.183
v 23.101 		25.215 		14.179
v 22.944 		25.215 		14.167
v 22.788 		25.215 		14.148
v 28.866 		9.103 		10.659
v 22.633 		25.215 		14.121
v 26.731 		7 		16.458
v 28.889 		9.103 		10.935
v 18.103 		25.315 		19.301
v 28.774 		9.103 		8.305
v 28.103 		37.015 		15.78
v 18.103 		37.015 		15.78
v 28.897 		9.103 		11.212
v 28.103 		58.635 		15.78
v 18.103 		58.635 		15.78
v 20.305 		7 		5.736
v 28.893 		9.103 		11.489
v 28.874 		9.103 		11.765
v 28.843 		9.103 		12.04
v 24.904 		25.215 		8.233
v 25.037 		25.215 		8.317
v 25.166 		25.215 		8.408
v 25.29 		25.215 		8.504
v 25.409 		25.215 		8.607
v 25.523 		25.215 		8.715
v 25.631 		25.215 		8.829
v 25.734 		25.215 		8.948
v 25.83 		25.215 		9.072
v 25.921 		25.215 		9.201
v 26.005 		25.215 		9.334
v 26.082 		25.215 		9.47
v 26.153 		25.215 		9.611
v 26.217 		25.215 		9.754
v 26.273 		25.215 		9.901
v 26.273 		25.215 		12.059
v 26.217 		25.215 		12.206
v 28.667 		9.103 		12.852
v 26.153 		25.215 		12.349
v 26.082 		25.215 		12.49
v 28.582 		9.103 		13.115
v 26.005 		25.215 		12.626
v 25.921 		25.215 		12.759
v 28.484 		9.103 		13.374
v 25.83 		25.215 		12.888
v 25.734 		25.215 		13.012
v 28.374 		9.103 		13.628
v 25.631 		25.215 		13.131
v 25.523 		25.215 		13.245
v 28.252 		9.103 		13.877
v 25.409 		25.215 		13.353
v 25.29 		25.215 		13.456
v 25.166 		25.215 		13.552
v 25.037 		25.215 		13.643
v 24.904 		25.215 		13.727
v 24.768 		25.215 		13.804
v 24.627 		25.215 		13.875
v 26.323 		25.215 		10.05
v 26.365 		25.215 		10.202
v 26.399 		25.215 		10.355
v 26.426 		25.215 		10.51
v 26.445 		25.215 		10.666
v 26.457 		25.215 		10.823
v 26.461 		25.215 		10.98
v 26.457 		25.215 		11.137
v 23.255 		7 		4.998
v 22.948 		7 		5.005
v 22.642 		7 		5.028
v 22.337 		7 		5.065
v 22.034 		7 		5.118
v 21.735 		7 		5.185
v 21.439 		7 		5.267
v 21.147 		7 		5.363
v 20.86 		7 		5.474
v 20.58 		7 		5.598
v 26.445 		25.215 		11.294
v 26.426 		25.215 		11.45
v 26.399 		25.215 		11.605
v 26.365 		25.215 		11.758
v 26.323 		25.215 		11.91
v 23.258 		25.215 		7.778
v 23.415 		25.215 		7.781
v 23.572 		25.215 		7.793
v 24.476 		7 		5.118
v 24.173 		7 		5.065
v 23.868 		7 		5.028
v 23.562 		7 		5.005
v 26.205 		7 		5.736
v 25.93 		7 		5.598
v 25.65 		7 		5.474
v 25.363 		7 		5.363
v 25.071 		7 		5.267
v 24.775 		7 		5.185
v 24.188 		58.635 		14.045
v 24.036 		58.635 		14.087
v 23.883 		58.635 		14.121
v 23.728 		58.635 		14.148
v 23.572 		58.635 		14.167
v 23.415 		58.635 		14.179
v 23.258 		58.635 		14.183
v 23.101 		58.635 		14.179
v 22.944 		58.635 		14.167
v 22.788 		58.635 		14.148
v 22.633 		58.635 		14.121
v 24.904 		58.635 		8.233
v 25.037 		58.635 		8.317
v 25.166 		58.635 		8.408
v 25.29 		58.635 		8.504
v 25.409 		58.635 		8.607
v 25.523 		58.635 		8.715
v 25.631 		58.635 		8.829
v 25.734 		58.635 		8.948
v 25.83 		58.635 		9.072
v 25.921 		58.635 		9.201
v 26.005 		58.635 		9.334
v 26.082 		58.635 		9.47
v 26.153 		58.635 		9.611
v 26.217 		58.635 		9.754
v 26.273 		58.635 		9.901
v 26.323 		58.635 		10.05
v 26.365 		58.635 		10.202
v 26.399 		58.635 		10.355
v 26.426 		58.635 		10.51
v 26.445 		58.635 		10.666
v 26.457 		58.635 		10.823
v 26.461 		58.635 		10.98
v 26.457 		58.635 		11.137
v 26.445 		58.635 		11.294
v 26.426 		58.635 		11.45
v 26.399 		58.635 		11.605
v 22.112 		18.805 		5.73
v 22.385 		18.805 		5.68
v 22.66 		18.805 		5.644
v 22.936 		18.805 		5.622
v 23.212 		18.805 		5.613
v 23.489 		18.805 		5.618
v 23.766 		18.805 		5.636
v 24.041 		18.805 		5.668
v 26.323 		23.215 		10.05
v 24.314 		18.805 		5.713
v 26.365 		23.215 		10.202
v 24.584 		18.805 		5.772
v 26.399 		23.215 		10.355
v 26.426 		23.215 		10.51
v 26.445 		23.215 		10.666
v 26.457 		23.215 		10.823
v 26.461 		23.215 		10.98
v 26.457 		23.215 		11.137
v 26.445 		23.215 		11.294
v 26.426 		23.215 		11.45
v 26.399 		23.215 		11.605
v 26.365 		23.215 		11.758
v 22.944 		25.215 		7.793
v 23.101 		25.215 		7.781
v 26.323 		23.215 		11.91
v 20.09 		25.215 		11.45
v 20.071 		25.215 		11.294
v 20.059 		25.215 		11.137
v 20.056 		25.215 		10.98
v 20.059 		25.215 		10.823
v 20.071 		25.215 		10.666
v 20.09 		25.215 		10.51
v 21.8943 		24.9751 		8.0826
v 21.8899 		24.977 		8.0846
v 23.415 		23.215 		7.781
v 23.258 		23.215 		7.778
v 21.889 		24.9774 		8.085
v 23.572 		23.215 		7.793
v 22.944 		23.215 		7.793
v 23.101 		23.215 		7.781
v 21.9191 		24.9639 		8.0715
v 21.9533 		24.977 		8.0562
v 21.917 		24.977 		8.067
v 21.9559 		24.9779 		8.0551
v 20.09 		23.215 		11.45
v 20.071 		23.215 		11.294
v 20.059 		23.215 		11.137
v 20.056 		23.215 		10.98
v 20.059 		23.215 		10.823
v 20.071 		23.215 		10.666
v 20.09 		23.215 		10.51
v 22.112 		20.805 		5.73
v 22.385 		20.805 		5.68
v 22.66 		20.805 		5.644
v 22.936 		20.805 		5.622
v 23.212 		20.805 		5.613
v 23.489 		20.805 		5.618
v 23.766 		20.805 		5.636
v 24.041 		20.805 		5.668
v 24.314 		20.805 		5.713
v 24.584 		20.805 		5.772
v 18.137 		9.103 		8.882
v 18.259 		9.103 		8.633
v 18.394 		9.103 		8.391
v 22.112 		18.7 		5.73
v 22.385 		18.7 		5.68
v 18.438 		9.103 		14.193
v 22.66 		18.7 		5.644
v 22.936 		18.7 		5.622
v 18.3 		9.103 		13.953
v 23.212 		18.7 		5.613
v 23.489 		18.7 		5.618
v 23.766 		18.7 		5.636
v 18.173 		9.103 		13.706
v 24.041 		18.7 		5.668
v 24.314 		18.7 		5.713
v 24.584 		18.7 		5.772
v 19.709 		9.103 		15.644
v 19.498 		9.103 		15.464
v 19.296 		9.103 		15.275
v 19.104 		9.103 		15.076
v 18.103 		18.7 		3.301
v 18.921 		9.103 		14.868
v 20.305 		9.103 		5.736
v 18.749 		9.103 		14.651
v 18.588 		9.103 		14.425
v 22.112 		9.103 		5.73
v 18.229 		9.103 		14.983
v 26.365 		58.635 		11.758
v 18.418 		9.103 		15.225
v 26.323 		58.635 		11.91
v 18.618 		9.103 		15.457
v 26.273 		58.635 		12.059
v 18.83 		9.103 		15.68
v 26.217 		58.635 		12.206
v 26.153 		58.635 		12.349
v 26.082 		58.635 		12.49
v 26.005 		58.635 		12.626
v 25.921 		58.635 		12.759
v 25.83 		58.635 		12.888
v 25.734 		58.635 		13.012
v 25.631 		58.635 		13.131
v 25.523 		58.635 		13.245
v 25.409 		58.635 		13.353
v 25.29 		58.635 		13.456
v 25.166 		58.635 		13.552
v 25.037 		58.635 		13.643
v 24.904 		58.635 		13.727
v 24.768 		58.635 		13.804
v 24.627 		58.635 		13.875
v 28.117 		9.103 		14.119
v 45.403 		23.215 		19.28
v 47.843 		18.7 		19.28
v 45.403 		25.315 		19.301
v 47.843 		25.315 		19.28
v 28.281 		9.103 		14.983
v 47.843 		18.805 		19.28
v 28.458 		9.103 		14.731
v 47.843 		25.215 		19.28
v 28.622 		9.103 		14.472
v 22.385 		9.103 		5.68
v 28.797 		9.103 		12.313
v 28.739 		9.103 		12.584
v 22.66 		9.103 		5.644
v 28.774 		9.103 		14.205
v 22.936 		9.103 		5.622
v 23.212 		9.103 		5.613
v 23.489 		9.103 		5.618
v 23.766 		9.103 		5.636
v 24.041 		9.103 		5.668
v 24.314 		9.103 		5.713
v 21.8297 		24.9947 		8.1149
v 29.445 		9.103 		12.173
v 29.482 		9.103 		11.868
v 29.505 		9.103 		11.562
v 29.513 		9.103 		11.255
v 29.505 		9.103 		10.948
v 29.482 		9.103 		10.642
v 29.445 		9.103 		10.337
v 29.392 		9.103 		10.034
v 29.325 		9.103 		9.735
v 29.243 		9.103 		9.439
v 29.147 		9.103 		9.147
v 29.036 		9.103 		8.86
v 28.912 		9.103 		8.58
v 28.912 		9.103 		13.93
v 29.036 		9.103 		13.65
v 29.147 		9.103 		13.363
v 29.243 		9.103 		13.071
v 47.843 		18.7 		3.301
v 47.843 		7.005 		3.301
v 47.843 		7.005 		3.3
v 47.843 		8.853 		3.3
v 47.843 		25.315 		3.301
v 47.843 		37.005 		3.301
v 24.584 		9.103 		5.772
v 26.205 		9.103 		5.736
v 47.843 		37.005 		3.3
v 47.843 		35.163 		3.3
v 23.255 		9.103 		4.998
v 22.948 		9.103 		5.005
v 22.642 		9.103 		5.028
v 45.403 		7.003 		3.3
v 22.337 		9.103 		5.065
v 22.034 		9.103 		5.118
v 21.735 		9.103 		5.185
v 21.439 		9.103 		5.267
v 21.147 		9.103 		5.363
v 20.86 		9.103 		5.474
v 20.58 		9.103 		5.598
v 24.476 		9.103 		5.118
v 24.173 		9.103 		5.065
v 23.868 		9.103 		5.028
v 23.562 		9.103 		5.005
v 25.93 		9.103 		5.598
v 25.65 		9.103 		5.474
v 25.363 		9.103 		5.363
v 25.071 		9.103 		5.267
v 24.775 		9.103 		5.185
v 45.403 		35.163 		2
v 57.993 		8.853 		3.28
v 57.993 		35.163 		3.28
v 45.403 		20.805 		3.28
v 0.653 		20.805 		3.28
v 0.653 		23.215 		3.28
v 45.403 		23.215 		3.28
v 28.103 		25.215 		3.3
v 47.843 		18.805 		3.28
v 47.843 		8.853 		3.28
v 47.843 		25.215 		3.28
v 47.843 		35.163 		3.28
v 18.103 		37.015 		5.78
v 28.103 		37.015 		5.78
v 28.103 		58.635 		5.78
v 18.103 		58.635 		5.78
v 20.038 		7 		5.888
v 19.779 		7 		6.052
v 19.527 		7 		6.229
v 19.285 		7 		6.418
v 19.053 		7 		6.618
v 18.83 		7 		6.83
v 18.618 		7 		7.053
v 18.418 		7 		7.285
v 21.748 		23.215 		8.156
v 18.229 		7 		7.527
v 0.653 		23.215 		19.28
v 21.889 		23.215 		8.085
v 0.653 		20.805 		19.28
v 22.032 		23.215 		8.021
v -12 		7 		19.301
v -12 		7 		3.301
v -12 		18.7 		3.301
v -12 		18.7 		19.301
v 22.179 		23.215 		7.965
v 18.229 		7 		14.983
v 18.418 		7 		15.225
v 22.328 		23.215 		7.915
v 18.618 		7 		15.457
v 22.48 		23.215 		7.873
v 18.83 		7 		15.68
v 26.472 		7 		5.888
v 28.092 		7 		7.285
v 27.892 		7 		7.053
v 27.68 		7 		6.83
v 27.457 		7 		6.618
v 27.225 		7 		6.418
v 26.983 		7 		6.229
v 26.731 		7 		6.052
v 27.68 		7 		15.68
v 27.892 		7 		15.457
v 28.092 		7 		15.225
v 18.54 		18.805 		8.156
v 18.698 		18.805 		7.929
v 18.867 		18.805 		7.709
v 19.046 		18.805 		7.498
v 19.235 		18.805 		7.296
v 23.728 		23.215 		7.812
v 19.435 		18.805 		7.103
v 23.883 		23.215 		7.839
v 19.643 		18.805 		6.921
v 24.036 		23.215 		7.873
v 19.86 		18.805 		6.749
v 20.085 		18.805 		6.588
v 24.188 		23.215 		7.915
v 20.318 		18.805 		6.438
v 24.337 		23.215 		7.965
v 24.484 		23.215 		8.021
v 20.558 		18.805 		6.299
v 20.804 		18.805 		6.173
v 22.633 		23.215 		7.839
v 21.056 		18.805 		6.059
v 21.314 		18.805 		5.957
v 22.788 		23.215 		7.812
v 21.576 		18.805 		5.868
v 21.843 		18.805 		5.793
v -11.999 		37.01 		2
v -11.999 		37.01 		0
v -11.999 		7 		0
v -11.999 		7 		2
v -11.999 		7.003 		2
v 22.765 		24.977 		7.816
v -11.999 		35.163 		3.3
v 22.788 		24.987 		7.812
v -11.999 		37.013 		3.3
v -11.999 		37.013 		2
v -11.999 		7.003 		3.3
v -11.96 		18.7 		19.28
v -11.96 		18.7 		3.301
v -11.96 		7.005 		3.301
v -11.997 		25.315 		19.301
v -11.997 		25.315 		3.301
v -11.96 		25.315 		3.301
v -11.96 		25.315 		19.28
v -11.997 		37.015 		3.301
v -11.997 		37.015 		19.301
v 22.762 		24.977 		7.816
v -11.96 		37.005 		3.301
v 22.7621 		24.9757 		7.8165
v 22.7577 		24.977 		7.8173
v 22.7585 		24.9767 		7.8171
v 21.748 		36.635 		8.156
v 21.6844 		36.635 		8.192
v 21.889 		36.635 		8.085
v 22.032 		36.635 		8.021
v 22.179 		36.635 		7.965
v 22.328 		36.635 		7.915
v 22.48 		36.635 		7.873
v 22.528 		36.635 		7.8623
v 23.415 		36.635 		7.781
v 23.258 		36.635 		7.778
v 23.572 		36.635 		7.793
v 23.728 		36.635 		7.812
v 23.883 		36.635 		7.839
v 29.325 		9.103 		12.775
v 29.392 		9.103 		12.476
v 24.036 		36.635 		7.873
v 24.188 		36.635 		7.915
v 24.337 		36.635 		7.965
v 24.484 		36.635 		8.021
v 22.633 		36.635 		7.839
v 22.788 		36.635 		7.812
v 22.944 		36.635 		7.793
v 23.101 		36.635 		7.781
v 24.627 		36.635 		8.085
v 24.768 		36.635 		8.156
v 20.1433 		36.635 		10.24
v 20.152 		36.635 		10.202
v 20.193 		36.635 		10.05
v 20.243 		36.635 		9.901
v 20.299 		36.635 		9.754
v 20.363 		36.635 		9.611
v 20.434 		36.635 		9.47
v 20.48 		36.635 		9.3887
v 20.3357 		36.635 		12.288
v 20.299 		36.635 		12.206
v 20.243 		36.635 		12.059
v 20.193 		36.635 		11.91
v 20.152 		36.635 		11.758
v 20.117 		36.635 		11.605
v 20.09 		36.635 		11.45
v 20.071 		36.635 		11.294
v 20.059 		36.635 		11.137
v 20.056 		36.635 		10.98
v 20.059 		36.635 		10.823
v 20.071 		36.635 		10.666
v 20.09 		36.635 		10.51
v 20.117 		36.635 		10.355
v 20.511 		36.635 		9.334
v 18.052 		7 		7.779
v 17.888 		7 		8.038
v 20.595 		36.635 		9.201
v 20.686 		36.635 		9.072
v 17.736 		7 		8.305
v 20.782 		36.635 		8.948
v 22.6954 		24.9955 		7.8281
v 20.885 		36.635 		8.829
v 20.994 		36.635 		8.715
v 21.107 		36.635 		8.607
v 17.736 		7 		14.205
v 21.226 		36.635 		8.504
v 17.888 		7 		14.472
v 18.052 		7 		14.731
v 21.35 		36.635 		8.408
v 21.479 		36.635 		8.317
v 21.612 		36.635 		8.233
v 20.434 		36.635 		12.49
v 20.363 		36.635 		12.349
v 17.598 		7 		8.58
v 17.474 		7 		8.86
v 17.363 		7 		9.147
v 17.267 		7 		9.439
v 17.185 		7 		9.735
v 17.118 		7 		10.034
v 17.065 		7 		10.337
v 17.028 		7 		10.642
v 17.005 		7 		10.948
v 24.852 		9.103 		5.843
v 25.116 		9.103 		5.928
v 25.375 		9.103 		6.026
v 25.629 		9.103 		6.136
v 25.877 		9.103 		6.259
v 26.119 		9.103 		6.394
v 26.354 		9.103 		6.54
v 26.582 		9.103 		6.698
v 26.472 		9.103 		5.888
v -11.96 		7.005 		3.3
v -11.96 		37.005 		3.3
v 26.801 		9.103 		6.866
v 27.012 		9.103 		7.046
v 27.214 		9.103 		7.235
v 27.407 		9.103 		7.434
v 27.589 		9.103 		7.642
v 27.761 		9.103 		7.859
v 27.923 		9.103 		8.085
v 28.092 		9.103 		7.285
v 27.892 		9.103 		7.053
v 27.68 		9.103 		6.83
v 27.457 		9.103 		6.618
v 27.225 		9.103 		6.418
v 26.983 		9.103 		6.229
v 26.731 		9.103 		6.052
v -9.999 		35.163 		2
v -9.999 		8.853 		2
v -9.999 		8.853 		3.28
v -9.999 		35.163 		3.28
v -1.81 		18.7 		19.28
v -1.81 		25.315 		19.28
v -1.798 		20.805 		19.28
v -1.798 		18.805 		19.28
v -1.81 		20.805 		19.28
v -1.798 		25.215 		19.28
v -1.798 		23.305 		19.28
v -1.81 		23.305 		19.28
v -1.499 		29.01 		0
v 28.073 		9.103 		8.317
v 27.97 		9.103 		14.354
v 27.813 		9.103 		14.581
v 27.644 		9.103 		14.801
v 27.465 		9.103 		15.012
v 27.275 		9.103 		15.214
v 27.076 		9.103 		15.407
v 26.868 		9.103 		15.589
v 26.651 		9.103 		15.761
v 28.092 		9.103 		15.225
v -1.499 		15 		0
v -1.499 		15 		2
v -1.499 		29.01 		2
v 27.68 		9.103 		15.68
v 27.892 		9.103 		15.457
v -1.81 		35.163 		3.28
v -1.81 		8.853 		3.28
v -1.798 		18.805 		3.28
v -1.798 		20.805 		3.28
v -1.81 		20.805 		3.28
v -1.798 		23.305 		3.28
v -1.798 		25.215 		3.28
v 16.997 		7 		11.255
v 17.005 		7 		11.562
v 17.028 		7 		11.868
v 17.065 		7 		12.173
v 17.118 		7 		12.476
v 17.185 		7 		12.775
v 17.267 		7 		13.071
v 17.363 		7 		13.363
v 17.474 		7 		13.65
v 17.598 		7 		13.93
v 18.54 		20.805 		8.156
v 18.698 		20.805 		7.929
v 24.627 		23.215 		8.085
v 18.867 		20.805 		7.709
v 19.046 		20.805 		7.498
v 24.768 		23.215 		8.156
v 19.235 		20.805 		7.296
v 19.435 		20.805 		7.103
v 19.643 		20.805 		6.921
v -1.81 		23.305 		3.28
v 19.86 		20.805 		6.749
v 20.085 		20.805 		6.588
v 0.653 		7 		3.301
v 20.318 		20.805 		6.438
v -1.81 		18.7 		3.301
v -1.81 		7.005 		3.301
v -1.81 		7.005 		3.3
v -1.81 		8.853 		3.3
v 20.152 		23.215 		10.202
v 20.193 		23.215 		10.05
v 20.243 		23.215 		9.901
v 20.299 		23.215 		9.754
v 20.363 		23.215 		9.611
v 20.434 		23.215 		9.47
v -1.81 		25.315 		3.301
v 0.653 		37.015 		3.301
v -1.81 		37.005 		3.301
v -1.81 		37.005 		3.3
v -1.81 		35.163 		3.3
v 20.299 		23.215 		12.206
v 20.243 		23.215 		12.059
v 20.193 		23.215 		11.91
v 20.152 		23.215 		11.758
v 20.117 		23.215 		11.605
v 20.117 		23.215 		10.355
v 17.713 		18.805 		10.197
v 17.772 		18.805 		9.926
v 17.844 		18.805 		9.658
v 17.929 		18.805 		9.395
v 18.026 		18.805 		9.136
v 17.681 		18.805 		12.125
v 17.645 		18.805 		11.851
v 17.622 		18.805 		11.575
v 17.613 		18.805 		11.298
v 17.618 		18.805 		11.021
v 20.595 		23.215 		9.201
v 20.686 		23.215 		9.072
v 20.782 		23.215 		8.948
v 20.885 		23.215 		8.829
v 20.994 		23.215 		8.715
v 21.107 		23.215 		8.607
v 21.226 		23.215 		8.504
v 21.35 		23.215 		8.408
v 21.479 		23.215 		8.317
v 21.612 		23.215 		8.233
v 17.636 		18.805 		10.745
v 17.668 		18.805 		10.47
v 18.059 		18.805 		13.454
v 17.958 		18.805 		13.196
v 17.869 		18.805 		12.934
v 17.793 		18.805 		12.668
v 17.73 		18.805 		12.398
v 17.713 		20.805 		10.197
v 17.772 		20.805 		9.926
v 17.844 		20.805 		9.658
v 17.929 		20.805 		9.395
v 18.026 		20.805 		9.136
v 17.681 		20.805 		12.125
v 17.645 		20.805 		11.851
v 17.622 		20.805 		11.575
v 17.613 		20.805 		11.298
v 17.618 		20.805 		11.021
v 17.636 		20.805 		10.745
v 17.668 		20.805 		10.47
v 18.059 		20.805 		13.454
v 17.958 		20.805 		13.196
v 17.869 		20.805 		12.934
v 17.793 		20.805 		12.668
v 17.73 		20.805 		12.398
v 20.511 		23.215 		9.334
v 21.1757 		24.9784 		8.5476
v 21.141 		24.996 		8.5776
v 20.434 		23.215 		12.49
v 20.363 		23.215 		12.349
v 21.479 		23.215 		13.643
v 21.35 		23.215 		13.552
v 21.226 		23.215 		13.456
v 21.107 		23.215 		13.353
v 20.994 		23.215 		13.245
v 20.885 		23.215 		13.131
v 20.782 		23.215 		13.012
v 20.686 		23.215 		12.888
v 20.595 		23.215 		12.759
v 20.511 		23.215 		12.626
v 22.179 		23.215 		13.995
v 22.032 		23.215 		13.939
v 21.889 		23.215 		13.875
v 21.748 		23.215 		13.804
v 21.612 		23.215 		13.727
v 17.713 		18.7 		10.197
v 17.772 		18.7 		9.926
v 17.844 		18.7 		9.658
v 17.929 		18.7 		9.395
v 18.026 		18.7 		9.136
v 17.681 		18.7 		12.125
v 17.645 		18.7 		11.851
v 17.622 		18.7 		11.575
v 17.613 		18.7 		11.298
v 17.618 		18.7 		11.021
v 17.636 		18.7 		10.745
v 17.668 		18.7 		10.47
v 18.059 		18.7 		13.454
v 17.958 		18.7 		13.196
v 17.869 		18.7 		12.934
v 17.793 		18.7 		12.668
v 17.73 		18.7 		12.398
v 24.484 		23.215 		13.939
v 24.337 		23.215 		13.995
v 24.904 		23.215 		8.233
v 25.037 		23.215 		8.317
v 25.166 		23.215 		8.408
v 25.29 		23.215 		8.504
v 25.409 		23.215 		8.607
v 25.523 		23.215 		8.715
v 25.631 		23.215 		8.829
v 25.734 		23.215 		8.948
v 25.83 		23.215 		9.072
v 25.921 		23.215 		9.201
v 26.005 		23.215 		9.334
v 26.082 		23.215 		9.47
v 26.153 		23.215 		9.611
v 26.217 		23.215 		9.754
v 26.273 		23.215 		9.901
v 26.273 		23.215 		12.059
v 26.217 		23.215 		12.206
v 26.153 		23.215 		12.349
v 26.082 		23.215 		12.49
v 26.005 		23.215 		12.626
v 25.921 		23.215 		12.759
v 25.83 		23.215 		12.888
v 25.734 		23.215 		13.012
v 25.631 		23.215 		13.131
v 25.523 		23.215 		13.245
v 25.409 		23.215 		13.353
v 25.29 		23.215 		13.456
v 25.166 		23.215 		13.552
v 25.037 		23.215 		13.643
v 24.904 		23.215 		13.727
v 24.768 		23.215 		13.804
v 24.627 		23.215 		13.875
v 17.613 		18.7 		19.301
v 18.052 		9.103 		7.779
v 17.888 		9.103 		8.038
v 17.713 		9.103 		10.197
v 17.772 		9.103 		9.926
v 17.844 		9.103 		9.658
v 17.929 		9.103 		9.395
v 18.026 		9.103 		9.136
v 17.736 		9.103 		8.305
v 17.681 		9.103 		12.125
v 17.645 		9.103 		11.851
v 17.622 		9.103 		11.575
v 17.613 		9.103 		11.298
v 17.618 		9.103 		11.021
v 17.636 		9.103 		10.745
v 17.668 		9.103 		10.47
v 18.059 		9.103 		13.454
v 17.958 		9.103 		13.196
v 17.869 		9.103 		12.934
v 17.793 		9.103 		12.668
v 17.73 		9.103 		12.398
v 17.736 		9.103 		14.205
v 17.888 		9.103 		14.472
v 18.052 		9.103 		14.731
v 17.598 		9.103 		8.58
v 17.474 		9.103 		8.86
v 17.363 		9.103 		9.147
v 17.267 		9.103 		9.439
v 17.185 		9.103 		9.735
v 17.118 		9.103 		10.034
v 17.065 		9.103 		10.337
v 17.028 		9.103 		10.642
v 17.005 		9.103 		10.948
v 16.997 		9.103 		11.255
v 17.005 		9.103 		11.562
v 17.028 		9.103 		11.868
v 17.065 		9.103 		12.173
v 17.118 		9.103 		12.476
v 17.185 		9.103 		12.775
v 17.267 		9.103 		13.071
v 17.363 		9.103 		13.363
v 17.474 		9.103 		13.65
v 17.598 		9.103 		13.93
# 1585 vertices

g group_0_10988977

usemtl color_10988977
s 0

f 1 	8 	3
f 2 	8 	1
f 6 	8 	7
f 9 	53 	8
f 50 	7 	8
f 10 	11 	1174
f 10 	1174 	14
f 13 	14 	1174
f 18 	689 	17
f 17 	689 	16
f 13 	1174 	24
f 26 	689 	25
f 27 	689 	26
f 28 	689 	27
f 29 	689 	28
f 19 	1174 	31
f 20 	1174 	19
f 21 	1174 	20
f 22 	1174 	21
f 23 	1174 	22
f 33 	689 	32
f 32 	689 	18
f 35 	689 	34
f 25 	689 	35
f 34 	689 	33
f 30 	1174 	29
f 31 	1174 	30
f 14 	40 	10
f 10 	36 	37
f 10 	37 	11
f 38 	12 	37
f 11 	37 	12
f 13 	49 	39
f 13 	39 	40
f 13 	40 	14
f 36 	10 	40
f 43 	17 	42
f 17 	43 	18
f 44 	18 	43
f 44 	4 	18
f 4 	32 	18
f 42 	16 	41
f 15 	41 	16
f 16 	42 	17
f 19 	3 	45
f 19 	45 	20
f 20 	45 	46
f 20 	46 	21
f 21 	46 	47
f 21 	47 	22
f 22 	47 	48
f 22 	48 	23
f 23 	48 	49
f 23 	49 	24
f 24 	49 	13
f 25 	7 	50
f 25 	50 	51
f 25 	51 	26
f 26 	51 	52
f 26 	52 	27
f 27 	52 	53
f 27 	53 	28
f 28 	53 	9
f 28 	9 	29
f 29 	9 	2
f 29 	2 	30
f 30 	2 	1
f 30 	1 	31
f 31 	1 	3
f 31 	3 	19
f 32 	4 	5
f 32 	5 	33
f 33 	5 	6
f 33 	6 	34
f 34 	6 	7
f 34 	7 	35
f 35 	7 	25
f 54 	55 	1543
f 57 	58 	1214
f 54 	1543 	62
f 61 	62 	1543
f 69 	747 	68
f 66 	747 	65
f 68 	747 	66
f 75 	67 	70
f 75 	70 	77
f 71 	79 	70
f 77 	70 	79
f 61 	1543 	80
f 83 	747 	82
f 84 	747 	83
f 85 	1543 	84
f 86 	1543 	85
f 72 	1543 	88
f 73 	1543 	72
f 73 	74 	1543
f 74 	76 	1543
f 76 	78 	1543
f 78 	80 	1543
f 90 	747 	89
f 89 	747 	69
f 92 	747 	91
f 82 	747 	92
f 91 	747 	90
f 87 	1543 	86
f 88 	1543 	87
f 94 	605 	95
f 98 	95 	605
f 99 	100 	62
f 614 	613 	93
f 93 	100 	614
f 99 	748 	100
f 62 	100 	93
f 55 	93 	94
f 95 	56 	94
f 55 	94 	56
f 95 	1044 	56
f 61 	99 	62
f 106 	105 	1369
f 101 	626 	102
f 626 	101 	105
f 101 	1369 	105
f 102 	623 	103
f 65 	101 	102
f 89 	69 	104
f 110 	111 	76
f 76 	111 	112
f 110 	755 	111
f 112 	113 	80
f 121 	358 	1080
f 114 	121 	1080
f 122 	114 	1080
f 123 	122 	846
f 124 	123 	846
f 125 	124 	846
f 148 	147 	846
f 150 	149 	846
f 155 	154 	1120
f 153 	1120 	154
f 156 	1120 	157
f 158 	1120 	159
f 165 	164 	1120
f 161 	1120 	162
f 163 	162 	1120
f 164 	163 	1120
f 167 	166 	1120
f 165 	1120 	166
f 168 	167 	1120
f 168 	1120 	169
f 169 	1120 	170
f 170 	1120 	171
f 171 	1120 	172
f 172 	1120 	173
f 177 	1080 	178
f 180 	1080 	181
f 182 	181 	1080
f 182 	1080 	183
f 184 	183 	1080
f 185 	184 	1080
f 187 	186 	1080
f 186 	185 	1080
f 189 	188 	1080
f 188 	187 	1080
f 190 	189 	1080
f 190 	1080 	191
f 192 	191 	1080
f 193 	192 	1080
f 195 	194 	1080
f 194 	193 	1080
f 1080 	846 	122
f 196 	1080 	197
f 196 	195 	1080
f 152 	151 	846
f 151 	150 	846
f 149 	148 	846
f 147 	125 	846
f 179 	1080 	180
f 178 	1080 	179
f 177 	176 	1080
f 1080 	176 	175
f 1080 	175 	1120
f 173 	1120 	174
f 174 	1120 	175
f 236 	235 	1417
f 233 	232 	1417
f 207 	1257 	206
f 208 	1257 	207
f 1259 	1258 	209
f 1263 	210 	211
f 233 	199 	1289
f 234 	1289 	199
f 1292 	235 	236
f 1292 	236 	237
f 319 	350 	318
f 319 	318 	321
f 319 	321 	320
f 323 	324 	325
f 326 	327 	325
f 323 	325 	327
f 331 	333 	330
f 332 	333 	331
f 333 	334 	330
f 329 	330 	334
f 337 	324 	336
f 325 	324 	337
f 335 	336 	324
f 338 	334 	333
f 338 	333 	340
f 345 	346 	344
f 343 	344 	346
f 346 	1079 	343
f 344 	341 	348
f 344 	348 	345
f 342 	341 	344
f 342 	344 	343
f 1080 	1081 	319
f 351 	318 	350
f 351 	353 	318
f 321 	318 	353
f 350 	346 	345
f 350 	345 	351
f 354 	355 	348
f 345 	348 	355
f 355 	1147 	345
f 351 	357 	353
f 356 	353 	357
f 747 	343 	1079
f 347 	149 	150
f 347 	150 	349
f 276 	120 	273
f 151 	349 	150
f 349 	151 	152
f 154 	361 	153
f 411 	81 	402
f 393 	403 	81
f 402 	81 	403
f 403 	393 	394
f 403 	394 	404
f 162 	369 	161
f 1450 	404 	394
f 38 	395 	405
f 38 	405 	12
f 396 	406 	395
f 405 	395 	406
f 406 	396 	397
f 406 	397 	407
f 398 	408 	397
f 407 	397 	408
f 408 	398 	399
f 408 	399 	409
f 400 	410 	399
f 409 	399 	410
f 410 	400 	401
f 410 	401 	411
f 81 	411 	401
f 155 	361 	154
f 417 	432 	416
f 418 	432 	417
f 421 	435 	420
f 424 	439 	423
f 425 	439 	424
f 163 	370 	162
f 413 	428 	427
f 413 	427 	412
f 428 	413 	429
f 414 	429 	413
f 415 	430 	429
f 415 	429 	414
f 430 	415 	431
f 416 	431 	415
f 432 	431 	416
f 418 	433 	432
f 419 	434 	433
f 419 	433 	418
f 350 	319 	1081
f 420 	435 	419
f 1080 	319 	320
f 434 	419 	435
f 1081 	1085 	350
f 421 	436 	435
f 422 	437 	436
f 422 	436 	421
f 348 	1118 	354
f 437 	422 	438
f 423 	438 	422
f 439 	438 	423
f 425 	440 	439
f 426 	442 	440
f 426 	440 	425
f 1188 	1189 	341
f 446 	442 	445
f 426 	445 	442
f 448 	467 	447
f 441 	341 	469
f 443 	341 	441
f 444 	341 	443
f 452 	342 	450
f 453 	476 	451
f 454 	342 	452
f 455 	476 	453
f 456 	342 	454
f 465 	341 	464
f 468 	341 	466
f 448 	470 	467
f 469 	341 	468
f 449 	471 	470
f 449 	470 	448
f 473 	342 	472
f 471 	449 	474
f 451 	474 	449
f 475 	342 	473
f 476 	474 	451
f 455 	477 	476
f 479 	342 	478
f 477 	455 	458
f 477 	458 	480
f 481 	342 	479
f 460 	482 	458
f 480 	458 	482
f 483 	342 	481
f 475 	478 	342
f 482 	460 	41
f 482 	41 	15
f 486 	342 	485
f 484 	342 	483
f 488 	489 	1407
f 450 	342 	486
f 484 	485 	342
f 489 	490 	1407
f 1048 	1407 	490
f 491 	1048 	490
f 492 	1048 	491
f 457 	341 	456
f 459 	341 	457
f 461 	341 	459
f 462 	341 	461
f 463 	341 	462
f 464 	341 	463
f 466 	341 	465
f 342 	456 	341
f 494 	1048 	492
f 495 	1048 	494
f 496 	1048 	495
f 498 	1048 	496
f 497 	445 	1154
f 499 	497 	1154
f 500 	499 	1154
f 501 	500 	1154
f 504 	1048 	502
f 505 	1048 	504
f 506 	1048 	505
f 498 	502 	1048
f 507 	1048 	506
f 508 	1048 	507
f 380 	379 	171
f 501 	1154 	503
f 1532 	881 	879
f 512 	487 	1407
f 1532 	1533 	881
f 521 	519 	1083
f 487 	488 	1407
f 510 	512 	1407
f 503 	1154 	511
f 511 	1154 	513
f 513 	1154 	514
f 514 	1154 	515
f 515 	1154 	516
f 1154 	1083 	519
f 522 	1083 	523
f 172 	380 	171
f 518 	1352 	517
f 383 	173 	174
f 383 	174 	175
f 56 	1543 	55
f 833 	530 	531
f 180 	389 	179
f 181 	390 	389
f 181 	389 	180
f 182 	391 	181
f 841 	840 	539
f 841 	539 	540
f 843 	540 	642
f 642 	525 	527
f 833 	531 	532
f 533 	835 	532
f 835 	533 	534
f 538 	840 	537
f 538 	539 	840
f 540 	843 	841
f 525 	642 	540
f 548 	190 	550
f 549 	572 	560
f 561 	1382 	559
f 562 	1382 	561
f 553 	572 	549
f 571 	1153 	570
f 574 	1153 	573
f 577 	1153 	576
f 571 	576 	1153
f 581 	582 	1382
f 584 	575 	591
f 585 	1382 	583
f 597 	598 	1382
f 599 	600 	1382
f 585 	593 	1382
f 551 	191 	192
f 589 	590 	1357
f 575 	578 	591
f 588 	589 	1357
f 200 	1248 	260
f 595 	1382 	594
f 596 	1382 	595
f 203 	1251 	202
f 597 	1382 	596
f 593 	594 	1382
f 203 	204 	1251
f 599 	1382 	598
f 601 	1382 	600
f 601 	602 	1382
f 1382 	602 	603
f 603 	559 	1382
f 562 	563 	1382
f 111 	754 	112
f 80 	113 	99
f 1259 	209 	210
f 112 	752 	113
f 772 	771 	617
f 771 	770 	618
f 618 	617 	771
f 608 	765 	609
f 202 	1250 	201
f 202 	1251 	1250
f 204 	1252 	1251
f 611 	612 	88
f 611 	760 	612
f 610 	761 	611
f 612 	108 	88
f 613 	792 	605
f 208 	1258 	1257
f 796 	794 	614
f 94 	93 	613
f 605 	94 	613
f 208 	209 	1258
f 113 	750 	99
f 109 	756 	110
f 108 	757 	109
f 612 	758 	108
f 104 	615 	89
f 103 	621 	104
f 615 	104 	775
f 616 	615 	773
f 775 	773 	615
f 623 	828 	621
f 828 	623 	844
f 626 	844 	623
f 105 	819 	626
f 627 	1357 	604
f 622 	1083 	624
f 455 	453 	8
f 586 	587 	1357
f 587 	588 	1357
f 623 	102 	626
f 621 	103 	623
f 775 	104 	621
f 617 	616 	772
f 773 	772 	616
f 631 	1357 	629
f 55 	54 	93
f 619 	1083 	620
f 630 	1083 	524
f 630 	628 	1083
f 632 	1357 	631
f 622 	620 	1083
f 5 	4 	8
f 633 	1357 	632
f 6 	5 	8
f 634 	1357 	633
f 635 	1357 	634
f 619 	524 	1083
f 628 	523 	1083
f 1083 	522 	521
f 516 	1154 	519
f 636 	1357 	635
f 637 	1357 	636
f 62 	93 	54
f 638 	1357 	637
f 639 	1357 	638
f 102 	66 	65
f 641 	1149 	640
f 604 	1357 	639
f 66 	102 	103
f 66 	103 	68
f 643 	1149 	641
f 644 	1357 	642
f 529 	1543 	528
f 526 	1543 	56
f 645 	1149 	643
f 646 	1357 	644
f 648 	1543 	529
f 650 	1357 	646
f 649 	1543 	648
f 528 	1543 	526
f 647 	652 	1149
f 651 	1352 	649
f 654 	657 	1149
f 655 	1352 	651
f 657 	658 	1149
f 652 	654 	1149
f 517 	1352 	655
f 520 	1352 	518
f 658 	659 	1149
f 689 	1149 	660
f 659 	660 	1149
f 663 	1116 	661
f 664 	689 	662
f 665 	689 	664
f 653 	656 	667
f 670 	1116 	668
f 676 	1116 	674
f 675 	677 	689
f 561 	559 	553
f 549 	561 	553
f 675 	689 	673
f 689 	677 	678
f 680 	1116 	679
f 561 	560 	562
f 549 	560 	561
f 681 	1116 	680
f 682 	1116 	681
f 684 	1116 	682
f 676 	679 	1116
f 685 	689 	683
f 665 	683 	689
f 686 	1116 	684
f 687 	1116 	686
f 671 	689 	669
f 685 	669 	689
f 671 	673 	689
f 1180 	564 	563
f 1183 	1185 	564
f 565 	564 	1185
f 660 	662 	689
f 645 	647 	1149
f 1185 	573 	565
f 689 	8 	1083
f 446 	445 	497
f 691 	747 	690
f 692 	747 	691
f 501 	645 	500
f 693 	747 	692
f 645 	501 	647
f 503 	647 	501
f 694 	747 	693
f 695 	747 	694
f 696 	747 	695
f 697 	747 	696
f 515 	658 	514
f 574 	573 	578
f 1245 	1301 	1216
f 575 	574 	578
f 516 	658 	515
f 65 	747 	697
f 574 	575 	584
f 521 	662 	519
f 522 	664 	662
f 522 	662 	521
f 576 	1395 	577
f 664 	522 	523
f 497 	640 	446
f 640 	497 	641
f 499 	641 	497
f 641 	499 	643
f 500 	643 	499
f 645 	643 	500
f 580 	1412 	1413
f 503 	652 	647
f 698 	1544 	699
f 511 	652 	503
f 1415 	1416 	583
f 700 	699 	716
f 513 	654 	652
f 513 	652 	511
f 654 	513 	657
f 514 	657 	513
f 658 	657 	514
f 516 	659 	658
f 659 	516 	519
f 659 	519 	660
f 587 	1424 	588
f 716 	715 	700
f 662 	660 	519
f 588 	1424 	589
f 715 	714 	701
f 701 	700 	715
f 523 	665 	664
f 714 	713 	702
f 702 	701 	714
f 665 	523 	683
f 592 	998 	1017
f 713 	712 	703
f 703 	702 	713
f 592 	1427 	579
f 620 	673 	619
f 585 	1472 	593
f 622 	675 	673
f 622 	673 	620
f 675 	622 	624
f 625 	678 	624
f 447 	678 	625
f 523 	628 	683
f 683 	628 	630
f 524 	669 	630
f 619 	671 	669
f 619 	669 	524
f 673 	671 	619
f 624 	677 	675
f 678 	677 	624
f 447 	467 	678
f 1443 	656 	599
f 600 	599 	656
f 600 	656 	653
f 630 	685 	683
f 630 	669 	685
f 688 	1116 	687
f 705 	704 	711
f 711 	710 	705
f 712 	711 	704
f 704 	703 	712
f 706 	705 	710
f 709 	706 	710
f 706 	709 	707
f 719 	1116 	717
f 717 	1116 	688
f 720 	1116 	719
f 721 	1116 	720
f 723 	1357 	650
f 1116 	721 	724
f 709 	708 	707
f 728 	1116 	727
f 729 	1116 	728
f 724 	727 	1116
f 731 	1116 	729
f 718 	707 	708
f 732 	1116 	731
f 734 	1116 	732
f 718 	1050 	722
f 104 	69 	103
f 68 	103 	69
f 738 	747 	737
f 72 	108 	109
f 72 	109 	73
f 110 	74 	109
f 73 	109 	74
f 742 	743 	747
f 74 	110 	76
f 112 	78 	76
f 744 	747 	743
f 78 	112 	80
f 690 	747 	744
f 99 	61 	80
f 92 	618 	82
f 746 	747 	745
f 738 	745 	747
f 82 	606 	607
f 82 	607 	83
f 608 	84 	607
f 83 	607 	84
f 740 	747 	739
f 746 	739 	747
f 741 	742 	747
f 740 	741 	747
f 84 	608 	609
f 84 	609 	85
f 610 	86 	609
f 85 	609 	86
f 735 	737 	747
f 734 	735 	1116
f 1116 	735 	747
f 86 	610 	611
f 86 	611 	87
f 87 	611 	88
f 108 	72 	88
f 89 	615 	616
f 89 	616 	90
f 617 	91 	616
f 90 	616 	91
f 91 	617 	618
f 91 	618 	92
f 1116 	493 	1048
f 606 	82 	618
f 748 	796 	614
f 750 	798 	748
f 752 	798 	750
f 756 	806 	755
f 757 	806 	756
f 749 	1361 	751
f 215 	1267 	214
f 761 	812 	760
f 215 	216 	1267
f 763 	812 	761
f 1269 	1268 	217
f 749 	847 	759
f 759 	1361 	749
f 198 	1256 	217
f 768 	818 	766
f 847 	1111 	762
f 762 	759 	847
f 219 	1271 	218
f 764 	762 	1111
f 770 	822 	768
f 153 	360 	219
f 772 	824 	771
f 1111 	1110 	764
f 773 	824 	772
f 621 	827 	775
f 767 	764 	1110
f 1273 	1272 	220
f 1293 	237 	1272
f 608 	607 	766
f 765 	608 	766
f 763 	609 	765
f 761 	610 	763
f 760 	611 	761
f 758 	612 	760
f 757 	108 	758
f 756 	109 	757
f 755 	110 	756
f 754 	111 	755
f 752 	112 	754
f 750 	113 	752
f 614 	100 	748
f 748 	99 	750
f 609 	763 	610
f 221 	1274 	220
f 1273 	220 	1274
f 222 	1275 	221
f 1274 	221 	1275
f 770 	768 	606
f 606 	618 	770
f 607 	606 	768
f 768 	766 	607
f 1275 	222 	223
f 1275 	223 	1276
f 97 	786 	784
f 97 	784 	96
f 1277 	1276 	224
f 223 	224 	1276
f 786 	97 	788
f 98 	788 	97
f 225 	1278 	224
f 1277 	224 	1278
f 605 	788 	98
f 1278 	225 	1279
f 788 	605 	790
f 792 	790 	605
f 1281 	1280 	226
f 1313 	265 	1280
f 792 	613 	794
f 614 	794 	613
f 227 	1282 	226
f 1281 	226 	1282
f 228 	1283 	227
f 1282 	227 	1283
f 798 	796 	748
f 1283 	228 	229
f 1283 	229 	1284
f 752 	800 	798
f 1285 	1284 	230
f 229 	230 	1284
f 754 	802 	800
f 754 	800 	752
f 231 	1286 	230
f 1285 	230 	1286
f 802 	754 	804
f 755 	804 	754
f 806 	804 	755
f 1286 	231 	232
f 757 	808 	806
f 1288 	1287 	233
f 758 	810 	808
f 758 	808 	757
f 233 	1289 	1288
f 810 	758 	811
f 760 	811 	758
f 234 	1290 	1289
f 812 	811 	760
f 763 	814 	812
f 1290 	234 	235
f 765 	816 	814
f 765 	814 	763
f 627 	604 	1476
f 1475 	1476 	604
f 816 	765 	817
f 766 	817 	765
f 237 	1293 	1292
f 1476 	586 	627
f 818 	817 	766
f 220 	1272 	237
f 1279 	225 	239
f 1279 	239 	1294
f 106 	820 	819
f 106 	819 	105
f 1297 	1294 	241
f 239 	241 	1294
f 1479 	632 	631
f 820 	106 	821
f 107 	821 	106
f 243 	1298 	241
f 1297 	241 	1298
f 1479 	1480 	632
f 107 	1374 	821
f 246 	1300 	243
f 1298 	243 	1300
f 818 	768 	822
f 1300 	246 	248
f 1300 	248 	1302
f 822 	770 	823
f 771 	823 	770
f 1303 	1302 	249
f 248 	249 	1302
f 824 	823 	771
f 773 	825 	824
f 1303 	249 	1304
f 252 	1304 	249
f 775 	826 	825
f 775 	825 	773
f 1304 	252 	1306
f 254 	1306 	252
f 826 	775 	827
f 256 	1309 	1306
f 256 	1306 	254
f 828 	827 	621
f 725 	1357 	723
f 256 	258 	1309
f 1310 	1309 	258
f 829 	1357 	725
f 1310 	258 	1311
f 260 	1311 	258
f 629 	1357 	829
f 527 	644 	642
f 831 	1085 	830
f 1312 	131 	264
f 644 	527 	646
f 832 	1085 	831
f 1312 	264 	265
f 1312 	265 	1313
f 833 	1085 	832
f 226 	1280 	265
f 834 	1085 	833
f 836 	837 	1085
f 530 	832 	831
f 844 	626 	819
f 833 	832 	530
f 532 	834 	833
f 320 	848 	849
f 835 	834 	532
f 534 	836 	835
f 1110 	1109 	767
f 774 	769 	1108
f 1109 	1108 	769
f 769 	767 	1109
f 1078 	1085 	1172
f 836 	534 	837
f 535 	837 	534
f 848 	852 	849
f 851 	852 	848
f 837 	535 	536
f 837 	536 	838
f 838 	536 	839
f 537 	839 	536
f 778 	774 	1107
f 1108 	1107 	774
f 840 	839 	537
f 737 	735 	855
f 854 	850 	1102
f 1103 	1102 	850
f 577 	1511 	857
f 1102 	1101 	854
f 858 	857 	1511
f 642 	1357 	843
f 759 	717 	1361
f 858 	1153 	857
f 762 	719 	717
f 762 	717 	759
f 719 	762 	720
f 764 	720 	762
f 860 	1153 	859
f 577 	857 	1153
f 861 	1153 	860
f 720 	764 	721
f 767 	721 	764
f 862 	1153 	861
f 721 	767 	724
f 769 	724 	767
f 863 	1153 	862
f 724 	769 	774
f 864 	1153 	863
f 865 	1153 	864
f 858 	859 	1153
f 778 	728 	774
f 865 	866 	1153
f 870 	1085 	869
f 728 	778 	779
f 731 	779 	842
f 868 	1153 	867
f 867 	1153 	866
f 869 	1153 	868
f 845 	731 	842
f 735 	850 	854
f 854 	855 	735
f 871 	1085 	870
f 737 	855 	856
f 1088 	745 	856
f 1528 	875 	873
f 876 	1085 	875
f 878 	1085 	876
f 876 	875 	1528
f 879 	1085 	878
f 873 	875 	1085
f 1530 	878 	876
f 881 	1085 	879
f 879 	878 	1530
f 882 	1085 	881
f 884 	1085 	882
f 885 	1085 	884
f 877 	1114 	880
f 874 	1115 	877
f 887 	1085 	885
f 888 	1085 	887
f 889 	1085 	888
f 890 	1085 	889
f 891 	1085 	890
f 892 	1085 	891
f 830 	1085 	893
f 892 	893 	1085
f 835 	836 	1085
f 837 	838 	1085
f 1357 	1085 	838
f 839 	1357 	838
f 840 	1357 	839
f 841 	1357 	840
f 841 	843 	1357
f 834 	835 	1085
f 894 	1085 	871
f 895 	1085 	894
f 897 	1085 	896
f 898 	1085 	897
f 899 	1085 	898
f 900 	1085 	899
f 896 	1085 	895
f 905 	1405 	904
f 118 	117 	272
f 273 	119 	272
f 907 	1405 	906
f 906 	1405 	905
f 853 	1405 	911
f 910 	911 	1405
f 909 	910 	1405
f 908 	909 	1405
f 130 	129 	286
f 916 	1085 	915
f 264 	131 	286
f 872 	873 	1085
f 916 	872 	1085
f 134 	292 	135
f 901 	1085 	900
f 912 	1085 	901
f 913 	1085 	912
f 914 	1085 	913
f 915 	1085 	914
f 137 	136 	298
f 1153 	1382 	565
f 300 	138 	298
f 568 	569 	1153
f 114 	141 	121
f 114 	122 	141
f 142 	141 	122
f 902 	493 	923
f 142 	122 	123
f 927 	493 	926
f 925 	493 	924
f 928 	493 	927
f 926 	493 	925
f 929 	493 	928
f 147 	146 	125
f 920 	493 	929
f 922 	493 	921
f 921 	493 	920
f 147 	148 	146
f 126 	120 	277
f 276 	277 	120
f 126 	277 	279
f 283 	129 	281
f 268 	115 	300
f 116 	268 	270
f 376 	377 	956
f 1533 	882 	881
f 1534 	884 	882
f 1534 	882 	1533
f 283 	286 	129
f 1534 	885 	884
f 922 	923 	493
f 493 	902 	903
f 1405 	493 	904
f 908 	1405 	907
f 903 	904 	493
f 1537 	888 	887
f 888 	1537 	889
f 292 	134 	290
f 294 	135 	292
f 967 	1378 	968
f 135 	294 	296
f 968 	1378 	969
f 1378 	970 	969
f 137 	298 	138
f 893 	1542 	830
f 1378 	1154 	971
f 116 	115 	268
f 973 	1154 	974
f 976 	974 	1154
f 1154 	978 	976
f 981 	898 	980
f 982 	898 	981
f 124 	125 	145
f 416 	415 	1154
f 145 	125 	146
f 146 	148 	328
f 328 	148 	149
f 989 	1153 	574
f 990 	1153 	989
f 565 	573 	1153
f 917 	1153 	990
f 152 	352 	349
f 871 	975 	894
f 1525 	975 	871
f 1153 	917 	918
f 1153 	918 	919
f 566 	1153 	919
f 569 	570 	1153
f 567 	568 	1153
f 566 	567 	1153
f 977 	895 	894
f 977 	894 	975
f 352 	152 	288
f 564 	565 	1382
f 580 	581 	1382
f 582 	583 	1382
f 895 	977 	896
f 896 	977 	979
f 896 	979 	897
f 980 	897 	979
f 993 	994 	1357
f 994 	995 	1357
f 992 	993 	1357
f 590 	992 	1357
f 898 	897 	980
f 982 	899 	898
f 899 	982 	983
f 899 	983 	900
f 900 	983 	901
f 984 	901 	983
f 158 	365 	157
f 579 	1382 	592
f 985 	912 	901
f 985 	901 	984
f 365 	158 	366
f 159 	366 	158
f 627 	586 	1357
f 912 	985 	913
f 986 	913 	985
f 366 	159 	160
f 563 	564 	1382
f 987 	914 	913
f 987 	913 	986
f 1382 	1357 	995
f 996 	1382 	995
f 997 	1382 	996
f 998 	592 	1382
f 997 	998 	1382
f 579 	580 	1382
f 914 	987 	915
f 988 	915 	987
f 991 	916 	915
f 991 	915 	988
f 371 	370 	163
f 553 	1098 	572
f 164 	372 	163
f 1000 	1009 	572
f 1003 	1000 	572
f 169 	377 	168
f 1007 	1008 	1009
f 917 	1002 	918
f 1001 	918 	1002
f 1008 	1010 	1009
f 1004 	919 	918
f 1004 	918 	1001
f 1271 	219 	360
f 359 	360 	153
f 560 	572 	1010
f 153 	361 	359
f 155 	362 	361
f 155 	156 	362
f 363 	362 	156
f 574 	584 	989
f 584 	1229 	1005
f 363 	156 	364
f 157 	364 	156
f 1006 	990 	989
f 1006 	989 	1005
f 1009 	999 	1007
f 364 	157 	365
f 1002 	917 	1006
f 990 	1006 	917
f 1009 	1000 	999
f 160 	367 	366
f 1011 	1012 	993
f 1010 	572 	1009
f 367 	160 	368
f 161 	368 	160
f 993 	1012 	1013
f 161 	369 	368
f 369 	162 	370
f 371 	163 	372
f 973 	972 	1154
f 972 	971 	1154
f 971 	970 	1378
f 164 	165 	372
f 373 	372 	165
f 1136 	1135 	726
f 726 	722 	1136
f 1019 	1150 	1018
f 1150 	1019 	1020
f 1020 	1021 	1150
f 730 	726 	1135
f 1135 	1134 	730
f 733 	730 	1134
f 1149 	1150 	1022
f 1024 	1025 	1149
f 1023 	1024 	1149
f 1026 	1149 	1025
f 699 	488 	698
f 487 	698 	488
f 489 	488 	700
f 699 	700 	488
f 489 	700 	701
f 489 	701 	490
f 1026 	1027 	1149
f 702 	491 	701
f 490 	701 	491
f 703 	491 	702
f 704 	494 	703
f 705 	495 	494
f 705 	494 	704
f 495 	705 	496
f 706 	496 	705
f 707 	496 	706
f 1022 	1023 	1149
f 1021 	1022 	1150
f 64 	1221 	967
f 969 	1020 	968
f 970 	1020 	969
f 972 	1023 	971
f 973 	1023 	972
f 974 	1025 	973
f 1025 	974 	1026
f 976 	1026 	974
f 505 	722 	726
f 1027 	1026 	976
f 730 	505 	726
f 967 	1018 	64
f 1018 	967 	1019
f 968 	1019 	967
f 1019 	968 	1020
f 970 	1021 	1020
f 971 	1022 	970
f 1021 	970 	1022
f 1023 	1022 	971
f 973 	1024 	1023
f 1025 	1024 	973
f 1028 	1567 	1029
f 698 	487 	1030
f 978 	1027 	976
f 412 	1027 	978
f 1030 	1545 	698
f 1029 	1551 	1030
f 427 	1027 	412
f 509 	1028 	1029
f 1031 	1032 	1048
f 1035 	1048 	1034
f 1032 	1034 	1048
f 1037 	1048 	1035
f 1033 	1052 	1566
f 1042 	1116 	1041
f 1039 	1041 	1048
f 661 	1116 	1043
f 1043 	1116 	1042
f 666 	668 	1116
f 1048 	1041 	1116
f 672 	1116 	670
f 672 	674 	1116
f 98 	97 	1044
f 95 	98 	1044
f 1031 	1048 	508
f 1038 	1048 	1037
f 1038 	1039 	1048
f 663 	666 	1116
f 97 	96 	1045
f 1045 	1044 	97
f 649 	648 	1049
f 361 	943 	942
f 1046 	1045 	96
f 651 	649 	1051
f 1049 	1051 	649
f 96 	1060 	1046
f 1051 	1052 	651
f 708 	1050 	718
f 1136 	722 	1050
f 1060 	1058 	1047
f 1047 	1046 	1060
f 1056 	1054 	1051
f 1052 	1051 	1054
f 1051 	1049 	1056
f 1036 	1033 	1565
f 1054 	1566 	1052
f 1058 	1056 	1049
f 1049 	1047 	1058
f 518 	517 	1036
f 1033 	1036 	517
f 518 	1036 	1040
f 526 	56 	1044
f 1045 	528 	1044
f 1046 	1047 	648
f 1047 	1049 	648
f 880 	1113 	883
f 689 	1078 	1149
f 1078 	1152 	1149
f 883 	1112 	886
f 747 	1079 	1116
f 342 	343 	747
f 886 	1091 	1077
f 1079 	346 	1083
f 346 	350 	1083
f 1085 	1083 	350
f 1088 	1089 	745
f 1134 	1133 	733
f 1101 	1100 	855
f 855 	854 	1101
f 478 	1086 	1091
f 1133 	1132 	736
f 736 	733 	1133
f 1086 	1077 	1091
f 1091 	886 	1112
f 1100 	1099 	856
f 856 	855 	1100
f 874 	739 	1089
f 739 	874 	740
f 877 	740 	874
f 1094 	1093 	1126
f 1127 	1126 	1093
f 877 	880 	740
f 741 	740 	880
f 883 	742 	741
f 883 	741 	880
f 742 	883 	743
f 886 	743 	883
f 1077 	744 	743
f 1077 	743 	886
f 1126 	1140 	1094
f 992 	1011 	993
f 1013 	994 	993
f 1089 	746 	745
f 994 	1013 	1014
f 994 	1014 	995
f 1015 	996 	1014
f 995 	1014 	996
f 559 	1170 	553
f 996 	1015 	1016
f 996 	1016 	997
f 1017 	998 	1016
f 997 	1016 	998
f 1098 	1003 	572
f 165 	166 	373
f 374 	373 	166
f 774 	727 	724
f 240 	1161 	238
f 166 	167 	374
f 375 	374 	167
f 242 	1161 	240
f 375 	167 	376
f 168 	376 	167
f 728 	727 	774
f 245 	1161 	244
f 168 	377 	376
f 779 	729 	728
f 244 	1161 	242
f 731 	729 	779
f 169 	170 	378
f 377 	169 	378
f 845 	732 	731
f 379 	378 	170
f 732 	845 	850
f 732 	850 	734
f 735 	734 	850
f 170 	171 	379
f 172 	381 	380
f 856 	738 	737
f 173 	382 	381
f 173 	381 	172
f 738 	856 	745
f 383 	382 	173
f 175 	384 	383
f 175 	176 	384
f 385 	384 	176
f 385 	176 	386
f 177 	386 	176
f 177 	178 	386
f 387 	386 	178
f 387 	178 	388
f 179 	388 	178
f 1089 	739 	746
f 179 	389 	388
f 390 	181 	391
f 183 	392 	182
f 1110 	1111 	468
f 1091 	1112 	479
f 479 	1112 	1113
f 1095 	1094 	1140
f 245 	247 	1161
f 553 	1170 	1098
f 1032 	1053 	1087
f 1003 	1173 	1000
f 1087 	1090 	1032
f 255 	1160 	253
f 259 	1160 	257
f 261 	1160 	259
f 1008 	1007 	1175
f 1010 	1175 	560
f 262 	1160 	261
f 255 	257 	1160
f 263 	1160 	262
f 999 	1173 	1007
f 269 	1161 	267
f 247 	266 	1161
f 271 	1161 	269
f 266 	267 	1161
f 1161 	271 	251
f 275 	1160 	274
f 263 	274 	1160
f 944 	1160 	943
f 942 	1160 	941
f 1078 	1083 	1085
f 689 	1083 	1078
f 282 	284 	1161
f 1092 	1034 	1090
f 284 	285 	1161
f 341 	493 	1117
f 493 	1116 	1117
f 1083 	1154 	1116
f 1083 	1116 	1079
f 285 	287 	1161
f 1116 	1119 	1117
f 1118 	1117 	1119
f 1039 	1038 	1095
f 1117 	348 	341
f 348 	1117 	1118
f 1096 	1041 	1095
f 314 	315 	1161
f 1096 	1097 	1041
f 291 	852 	289
f 295 	852 	293
f 291 	293 	852
f 999 	1000 	1173
f 301 	852 	299
f 302 	852 	301
f 303 	852 	302
f 1173 	1175 	1007
f 1122 	1145 	1323
f 305 	1161 	304
f 562 	560 	1175
f 307 	1161 	306
f 278 	1161 	307
f 309 	1161 	308
f 310 	1161 	309
f 287 	308 	1161
f 311 	1161 	310
f 1098 	1170 	1003
f 312 	1161 	311
f 313 	1161 	312
f 314 	1161 	313
f 316 	1161 	315
f 322 	1161 	317
f 1010 	1008 	1175
f 317 	1161 	316
f 238 	1161 	322
f 1156 	1085 	1120
f 1081 	1120 	1085
f 289 	852 	777
f 776 	777 	852
f 295 	297 	852
f 299 	852 	297
f 781 	852 	780
f 1031 	508 	1053
f 782 	852 	781
f 783 	852 	782
f 785 	852 	783
f 541 	392 	183
f 1090 	1034 	1032
f 787 	852 	785
f 789 	852 	787
f 791 	852 	789
f 1037 	1035 	1093
f 793 	852 	791
f 776 	852 	795
f 1037 	1093 	1038
f 1094 	1038 	1093
f 793 	795 	852
f 1094 	1095 	1038
f 1095 	1041 	1039
f 546 	545 	188
f 1097 	1042 	1041
f 803 	852 	801
f 805 	852 	803
f 548 	189 	190
f 736 	1053 	508
f 807 	809 	852
f 1053 	1032 	1031
f 551 	550 	191
f 190 	191 	550
f 1075 	556 	557
f 1092 	1035 	1034
f 1092 	1093 	1035
f 1124 	1125 	1121
f 1120 	1121 	1125
f 1125 	1157 	1120
f 1418 	1159 	321
f 321 	353 	1121
f 321 	1121 	1418
f 356 	1124 	353
f 1121 	353 	1124
f 1097 	1043 	1042
f 357 	337 	356
f 336 	356 	337
f 1122 	1043 	1097
f 1067 	1066 	546
f 336 	1420 	1124
f 336 	1124 	356
f 340 	355 	354
f 340 	354 	338
f 1118 	338 	354
f 1409 	1129 	1410
f 1129 	338 	1118
f 1118 	1119 	1129
f 1133 	1134 	909
f 331 	1371 	332
f 909 	1134 	1135
f 809 	780 	852
f 805 	807 	852
f 799 	801 	852
f 1135 	1136 	911
f 815 	851 	813
f 930 	851 	815
f 931 	851 	930
f 932 	851 	931
f 933 	851 	932
f 934 	935 	851
f 1139 	1140 	923
f 935 	936 	851
f 542 	541 	184
f 923 	1140 	1126
f 852 	936 	937
f 1141 	1142 	926
f 926 	1142 	1143
f 939 	852 	938
f 940 	797 	852
f 939 	940 	852
f 546 	188 	189
f 941 	1160 	275
f 945 	1160 	944
f 946 	1160 	945
f 947 	1160 	946
f 948 	1160 	947
f 949 	950 	1160
f 1131 	1130 	1087
f 1087 	1053 	1131
f 1090 	1087 	1130
f 1130 	1128 	1090
f 1092 	1090 	1128
f 1128 	1127 	1092
f 1097 	1096 	1138
f 1138 	1137 	1097
f 1122 	1097 	1137
f 1139 	1138 	1096
f 1093 	1092 	1127
f 1132 	1131 	1053
f 1053 	736 	1132
f 942 	943 	1160
f 325 	1146 	326
f 951 	1160 	950
f 948 	949 	1160
f 1349 	333 	1372
f 1348 	1373 	1146
f 1145 	1122 	1137
f 1326 	1325 	1142
f 1142 	1141 	1326
f 1123 	1327 	1141
f 1144 	1323 	1145
f 332 	1372 	333
f 911 	1136 	853
f 953 	1160 	952
f 954 	1160 	953
f 853 	1050 	708
f 955 	1160 	954
f 951 	952 	1160
f 956 	1160 	955
f 902 	1126 	1127
f 902 	1127 	903
f 956 	957 	1160
f 1128 	904 	1127
f 903 	1127 	904
f 556 	555 	195
f 958 	1160 	957
f 904 	1128 	1130
f 904 	1130 	905
f 556 	195 	196
f 1131 	906 	1130
f 905 	1130 	906
f 958 	959 	1160
f 558 	557 	197
f 906 	1131 	1132
f 906 	1132 	907
f 959 	960 	1160
f 358 	139 	197
f 960 	961 	1160
f 1133 	908 	1132
f 907 	1132 	908
f 851 	1160 	962
f 908 	1133 	909
f 391 	182 	392
f 1135 	910 	909
f 183 	184 	541
f 910 	1135 	911
f 185 	543 	184
f 542 	184 	543
f 1050 	853 	1136
f 543 	185 	544
f 186 	544 	185
f 1059 	1061 	851
f 929 	1137 	920
f 187 	545 	186
f 544 	186 	545
f 1055 	851 	966
f 920 	1137 	1138
f 920 	1138 	921
f 338 	1129 	334
f 1061 	1062 	851
f 1057 	1059 	851
f 1055 	1057 	851
f 1139 	922 	1138
f 921 	1138 	922
f 1148 	351 	1147
f 357 	351 	1148
f 345 	1147 	351
f 922 	1139 	923
f 1126 	902 	923
f 1064 	851 	1063
f 1065 	851 	1064
f 924 	1187 	1123
f 1066 	851 	1065
f 1063 	851 	1062
f 924 	1141 	925
f 1123 	1141 	924
f 1378 	1150 	1154
f 1149 	1154 	1150
f 1068 	851 	1067
f 926 	925 	1141
f 1143 	927 	926
f 927 	1143 	1144
f 927 	1144 	928
f 1068 	1069 	851
f 1066 	1067 	851
f 1152 	1151 	1156
f 928 	1144 	1145
f 928 	1145 	929
f 929 	1145 	1137
f 1156 	1154 	1149
f 1071 	851 	1070
f 1069 	1070 	851
f 1147 	1155 	1154
f 1156 	1148 	1154
f 1072 	851 	1071
f 1381 	1382 	1151
f 1157 	1148 	1156
f 1073 	851 	1072
f 1149 	1152 	1156
f 1382 	1156 	1151
f 1147 	1154 	1148
f 1074 	851 	1073
f 1158 	1159 	1418
f 1155 	1116 	1154
f 1119 	1116 	1155
f 1076 	851 	1075
f 1382 	1153 	1156
f 1156 	1120 	1157
f 1158 	1161 	1159
f 1160 	1159 	1161
f 1173 	1003 	1170
f 325 	337 	1148
f 357 	1148 	337
f 1148 	1157 	325
f 1162 	1405 	853
f 1163 	1405 	1162
f 1125 	1421 	1146
f 1348 	1146 	1376
f 1125 	1146 	1157
f 1146 	325 	1157
f 1164 	1405 	1163
f 562 	1175 	563
f 1180 	563 	1175
f 1165 	1405 	1164
f 1166 	1405 	1165
f 1167 	1405 	1166
f 340 	333 	1147
f 340 	1147 	355
f 1168 	1405 	1167
f 1169 	1405 	1168
f 1410 	1119 	1377
f 1349 	1155 	333
f 1147 	333 	1155
f 1171 	1405 	1169
f 1349 	1377 	1155
f 1151 	1172 	1150
f 1174 	1150 	1172
f 1179 	1233 	1178
f 1234 	1235 	1178
f 187 	188 	545
f 1184 	1176 	1182
f 547 	546 	189
f 548 	547 	189
f 1186 	1176 	1184
f 192 	552 	551
f 924 	493 	1187
f 193 	554 	192
f 552 	192 	554
f 564 	1180 	1183
f 554 	193 	555
f 194 	555 	193
f 1194 	1187 	493
f 194 	195 	555
f 1189 	1190 	341
f 196 	557 	556
f 493 	341 	1190
f 444 	1188 	341
f 1191 	493 	1190
f 196 	197 	557
f 1192 	1193 	493
f 1194 	493 	1193
f 1191 	1192 	493
f 1203 	566 	1004
f 201 	1249 	200
f 1250 	1249 	201
f 1196 	1197 	342
f 342 	1197 	472
f 1195 	1196 	342
f 1198 	1378 	1199
f 1204 	1202 	1378
f 1201 	1378 	1202
f 1208 	1206 	1378
f 1206 	1204 	1378
f 1209 	1208 	1378
f 210 	1262 	1259
f 1211 	1209 	1378
f 1263 	1262 	210
f 1211 	1378 	1214
f 1263 	211 	212
f 1378 	1215 	1214
f 1179 	1178 	1177
f 1179 	1177 	1176
f 1215 	1378 	1217
f 1218 	1217 	1378
f 1218 	1378 	1220
f 1220 	1378 	1221
f 1225 	1226 	1224
f 1226 	1228 	1224
f 967 	1221 	1378
f 1232 	1228 	1226
f 1223 	1224 	1228
f 1230 	1231 	1222
f 1223 	1228 	1222
f 1230 	1222 	1228
f 591 	1229 	584
f 67 	1432 	1378
f 70 	67 	1378
f 1234 	1178 	1233
f 1177 	1178 	1235
f 1198 	71 	1378
f 71 	70 	1378
f 1238 	1239 	1237
f 1236 	1237 	1239
f 1238 	1237 	1243
f 1237 	1240 	1243
f 1227 	1242 	1244
f 1241 	1240 	1237
f 1241 	1237 	1236
f 1229 	591 	1227
f 205 	214 	1254
f 1245 	1246 	1242
f 1267 	1266 	214
f 813 	851 	1076
f 1074 	1075 	851
f 933 	934 	851
f 396 	395 	1355
f 395 	38 	1355
f 852 	851 	936
f 852 	937 	938
f 797 	799 	852
f 397 	396 	1355
f 398 	397 	1355
f 200 	1247 	1248
f 401 	400 	1355
f 81 	401 	1355
f 400 	399 	1355
f 399 	398 	1355
f 1249 	1247 	200
f 978 	1154 	412
f 412 	1154 	413
f 415 	414 	1154
f 413 	1154 	414
f 205 	1253 	1252
f 204 	205 	1252
f 418 	417 	1154
f 417 	416 	1154
f 205 	1254 	1253
f 418 	1154 	419
f 1256 	198 	1255
f 206 	1255 	198
f 419 	1154 	420
f 206 	1257 	1255
f 421 	420 	1154
f 422 	421 	1154
f 424 	423 	1154
f 423 	422 	1154
f 1115 	1260 	485
f 485 	1260 	1261
f 212 	1264 	1263
f 1264 	212 	1265
f 213 	1265 	212
f 779 	778 	1106
f 1107 	1106 	778
f 1106 	1105 	779
f 842 	779 	1105
f 1105 	1104 	842
f 845 	842 	1104
f 1088 	856 	1099
f 1099 	1261 	1088
f 1089 	1088 	1261
f 1103 	845 	1104
f 850 	845 	1103
f 218 	1270 	213
f 1266 	1254 	214
f 1261 	1260 	1089
f 874 	1089 	1260
f 1115 	874 	1260
f 1114 	877 	1115
f 1113 	880 	1114
f 1112 	883 	1113
f 469 	847 	441
f 751 	443 	749
f 441 	749 	443
f 216 	1268 	1267
f 443 	751 	753
f 443 	753 	444
f 216 	217 	1268
f 753 	1341 	444
f 749 	441 	847
f 1269 	217 	1256
f 1311 	1248 	322
f 486 	1099 	450
f 1265 	213 	1270
f 450 	1099 	1100
f 450 	1100 	452
f 1271 	1270 	218
f 1101 	454 	1100
f 452 	1100 	454
f 454 	1101 	1102
f 454 	1102 	456
f 1103 	457 	1102
f 456 	1102 	457
f 457 	1103 	1104
f 457 	1104 	459
f 1105 	461 	1104
f 459 	1104 	461
f 461 	1105 	1106
f 461 	1106 	462
f 1107 	463 	1106
f 462 	1106 	463
f 463 	1107 	1108
f 463 	1108 	464
f 1109 	465 	1108
f 464 	1108 	465
f 465 	1109 	1110
f 465 	1110 	466
f 466 	1110 	468
f 1111 	469 	468
f 847 	469 	1111
f 1084 	473 	472
f 1084 	472 	1082
f 473 	1084 	475
f 1086 	475 	1084
f 478 	475 	1086
f 479 	478 	1091
f 232 	1287 	1286
f 1113 	481 	479
f 267 	1267 	269
f 232 	233 	1287
f 481 	1113 	1114
f 481 	1114 	483
f 1115 	484 	1114
f 483 	1114 	484
f 484 	1115 	485
f 485 	1261 	486
f 486 	1261 	1099
f 1271 	275 	1270
f 1290 	235 	1291
f 1291 	235 	1292
f 1080 	1120 	1081
f 1159 	848 	321
f 320 	321 	848
f 307 	1272 	278
f 320 	846 	1080
f 1418 	1121 	1120
f 1085 	1156 	1153
f 1153 	869 	1085
f 1357 	1172 	1085
f 280 	1275 	282
f 1159 	851 	848
f 1160 	851 	1159
f 282 	1275 	1276
f 1296 	1405 	1295
f 1171 	1295 	1405
f 1299 	1405 	1296
f 1242 	591 	1245
f 1307 	1176 	1305
f 578 	1216 	1301
f 1308 	1176 	1307
f 1246 	1244 	1242
f 1242 	1227 	591
f 961 	962 	1160
f 851 	962 	963
f 851 	963 	964
f 851 	964 	965
f 965 	966 	851
f 1311 	260 	1248
f 251 	250 	1160
f 253 	1160 	250
f 1161 	251 	1160
f 130 	286 	131
f 304 	1161 	303
f 306 	1161 	305
f 282 	1161 	280
f 280 	1161 	278
f 852 	303 	1161
f 804 	806 	1176
f 1316 	1405 	1315
f 118 	272 	119
f 1314 	1405 	1299
f 1318 	1405 	1317
f 1266 	266 	1254
f 119 	273 	120
f 1319 	1405 	1318
f 1321 	1322 	1405
f 1316 	1317 	1405
f 1033 	517 	1052
f 1140 	1139 	1095
f 1301 	1245 	591
f 578 	1301 	591
f 1096 	1095 	1139
f 1144 	1143 	1324
f 1245 	1216 	1246
f 1324 	1143 	1325
f 1323 	1144 	1324
f 1219 	1229 	1227
f 1246 	1216 	1244
f 1143 	1142 	1325
f 296 	136 	135
f 1326 	1141 	1327
f 1328 	1327 	1123
f 1219 	1005 	1229
f 1123 	1331 	1328
f 1219 	1244 	1216
f 138 	300 	115
f 270 	117 	116
f 1216 	573 	1185
f 1227 	1244 	1219
f 573 	1216 	578
f 1233 	1239 	1238
f 1332 	1234 	1238
f 1233 	1238 	1234
f 1329 	1328 	1331
f 1234 	1332 	1235
f 989 	584 	1005
f 1238 	1243 	1333
f 1238 	1333 	1332
f 919 	1004 	566
f 1543 	1352 	1179
f 1233 	1179 	1352
f 1233 	1356 	1239
f 1331 	1347 	1329
f 1347 	1346 	1330
f 1330 	1329 	1347
f 1346 	1345 	1334
f 1334 	1330 	1346
f 1335 	1334 	1345
f 1345 	1344 	1335
f 296 	298 	136
f 1343 	1342 	1337
f 1338 	1337 	1342
f 1342 	1341 	1338
f 1339 	1338 	1341
f 1341 	753 	1339
f 1337 	1336 	1343
f 1340 	1339 	753
f 1344 	1343 	1336
f 1336 	1335 	1344
f 1043 	1122 	1323
f 289 	777 	1280
f 558 	197 	139
f 139 	358 	140
f 121 	140 	358
f 121 	141 	140
f 293 	1283 	1284
f 1418 	1419 	1240
f 1332 	1228 	1232
f 1333 	1228 	1332
f 1228 	1333 	1230
f 680 	1334 	1335
f 1223 	1371 	1224
f 330 	1224 	1371
f 1225 	1224 	330
f 324 	1223 	1222
f 1339 	686 	1338
f 1231 	335 	1222
f 1402 	1380 	1351
f 1351 	1380 	1350
f 1349 	1348 	1350
f 1351 	1350 	1348
f 666 	1325 	1326
f 747 	1543 	342
f 1239 	1353 	1236
f 846 	1236 	1353
f 670 	1326 	1327
f 1241 	1236 	846
f 1327 	1328 	670
f 1174 	1354 	1355
f 1356 	1233 	1352
f 1356 	1359 	1239
f 1353 	1239 	1359
f 1358 	1359 	1356
f 1358 	1356 	1354
f 1174 	1172 	1354
f 1358 	1354 	1172
f 1361 	1340 	751
f 753 	751 	1340
f 293 	1282 	1283
f 1084 	1362 	1086
f 1077 	1086 	1362
f 1273 	278 	1272
f 1364 	1363 	1082
f 1084 	1082 	1363
f 1363 	1362 	1084
f 311 	1298 	1300
f 1365 	1364 	1370
f 1082 	1370 	1364
f 1366 	1374 	1367
f 1368 	1367 	107
f 1369 	1368 	106
f 107 	106 	1368
f 472 	1197 	1082
f 1370 	1082 	1197
f 123 	143 	142
f 1371 	1223 	1360
f 1223 	323 	1360
f 327 	1360 	323
f 331 	330 	1371
f 1225 	330 	329
f 1375 	1374 	1366
f 1370 	1375 	1365
f 1372 	1371 	1360
f 1372 	1360 	1373
f 124 	144 	143
f 124 	143 	123
f 327 	326 	1360
f 1373 	1360 	326
f 1223 	324 	323
f 1195 	821 	1374
f 124 	145 	144
f 1372 	332 	1371
f 329 	334 	1226
f 329 	1226 	1225
f 1348 	1349 	1373
f 326 	1146 	1373
f 1372 	1373 	1349
f 107 	1367 	1374
f 1366 	1365 	1375
f 324 	1222 	335
f 334 	1129 	1226
f 1351 	1348 	1376
f 149 	339 	328
f 1119 	1155 	1377
f 1350 	1377 	1349
f 1363 	691 	1362
f 1378 	1379 	1150
f 339 	149 	347
f 691 	1363 	692
f 1364 	692 	1363
f 1320 	1321 	1405
f 1365 	692 	1364
f 1176 	1405 	1322
f 1366 	694 	1365
f 1385 	1176 	1384
f 694 	1366 	1367
f 288 	132 	352
f 1386 	1176 	1385
f 1368 	696 	1367
f 426 	1154 	445
f 425 	1154 	426
f 425 	424 	1154
f 1386 	1387 	1176
f 1391 	1176 	1390
f 1388 	1176 	1387
f 270 	272 	117
f 1392 	1176 	1391
f 1305 	1176 	1392
f 624 	1083 	625
f 1181 	1176 	1308
f 1181 	1182 	1176
f 796 	798 	1176
f 447 	625 	1083
f 126 	279 	127
f 448 	447 	1083
f 128 	127 	281
f 279 	281 	127
f 1212 	1213 	570
f 571 	570 	1213
f 451 	449 	1083
f 448 	1083 	449
f 128 	281 	129
f 8 	453 	1083
f 1395 	576 	1213
f 451 	1083 	453
f 455 	8 	458
f 567 	566 	1205
f 1203 	1205 	566
f 1205 	1207 	567
f 568 	567 	1207
f 290 	133 	288
f 132 	288 	133
f 568 	1207 	569
f 1210 	569 	1207
f 134 	133 	290
f 570 	569 	1212
f 1210 	1212 	569
f 1396 	1150 	1394
f 1397 	1150 	1396
f 571 	1213 	576
f 1393 	1394 	1150
f 1376 	1402 	1351
f 1398 	577 	1395
f 1380 	1402 	1379
f 1377 	1350 	1380
f 1402 	1381 	1379
f 1381 	1151 	1379
f 1150 	1379 	1151
f 1403 	1150 	1401
f 1511 	577 	1398
f 1404 	1406 	1150
f 1407 	1405 	1408
f 1415 	583 	582
f 1352 	1407 	1356
f 59 	1150 	57
f 60 	1150 	59
f 63 	1150 	60
f 64 	1150 	63
f 58 	57 	1150
f 1150 	64 	1018
f 581 	1413 	582
f 1393 	1150 	79
f 77 	79 	1150
f 581 	580 	1413
f 403 	1174 	402
f 404 	1174 	403
f 582 	1414 	1415
f 1468 	1174 	1467
f 1416 	1472 	585
f 406 	1174 	405
f 12 	1174 	11
f 407 	1174 	406
f 405 	1174 	12
f 1409 	1410 	1408
f 1407 	1408 	1410
f 1410 	1377 	1407
f 1405 	1176 	1177
f 1405 	1177 	1408
f 1235 	1408 	1177
f 1408 	1235 	1332
f 1408 	1332 	1409
f 696 	1368 	1369
f 1119 	1410 	1129
f 1409 	1332 	1129
f 1232 	1129 	1332
f 1232 	1226 	1129
f 1355 	1354 	1379
f 1355 	1379 	1378
f 1356 	1407 	1380
f 1377 	1380 	1407
f 1411 	579 	1427
f 580 	579 	1412
f 1411 	1412 	579
f 1379 	1354 	1356
f 1379 	1356 	1380
f 582 	1413 	1414
f 1418 	1417 	1419
f 703 	492 	491
f 494 	492 	703
f 1402 	1376 	1417
f 1353 	1359 	1417
f 585 	583 	1416
f 1417 	1421 	1419
f 1420 	1419 	1421
f 1402 	1417 	1359
f 1240 	1241 	1418
f 1243 	1240 	1419
f 707 	498 	496
f 707 	718 	498
f 502 	498 	718
f 722 	504 	718
f 730 	506 	505
f 506 	730 	507
f 733 	507 	730
f 507 	733 	508
f 736 	508 	733
f 502 	718 	504
f 505 	504 	722
f 590 	1426 	992
f 1029 	510 	509
f 1011 	992 	1426
f 1029 	1030 	510
f 510 	1030 	512
f 1422 	586 	1476
f 512 	1030 	487
f 586 	1422 	1423
f 586 	1423 	587
f 587 	1423 	1424
f 1040 	520 	518
f 1424 	1425 	589
f 526 	1044 	528
f 1314 	1315 	1405
f 1383 	1176 	1322
f 1383 	1384 	1176
f 1389 	1176 	1388
f 1389 	1390 	1176
f 1319 	1320 	1405
f 1046 	529 	528
f 1046 	528 	1045
f 1201 	1200 	1378
f 1199 	1378 	1200
f 648 	529 	1046
f 1052 	655 	651
f 1052 	517 	655
f 1430 	1429 	1378
f 1431 	1430 	1378
f 663 	1323 	1324
f 1324 	1325 	663
f 1454 	1355 	1433
f 1434 	1433 	1355
f 1435 	1434 	1355
f 1329 	674 	1328
f 589 	1425 	1426
f 590 	589 	1426
f 680 	1335 	1336
f 682 	681 	1337
f 682 	1337 	684
f 1338 	684 	1337
f 592 	1017 	1427
f 686 	684 	1338
f 686 	1339 	1340
f 301 	1287 	1288
f 1288 	1289 	303
f 303 	1289 	1290
f 1292 	1293 	307
f 958 	957 	378
f 1297 	309 	1294
f 308 	1294 	309
f 309 	1297 	1298
f 311 	1300 	312
f 313 	312 	1303
f 1302 	1303 	312
f 314 	313 	1304
f 1303 	1304 	313
f 1306 	315 	1304
f 314 	1304 	315
f 1306 	1309 	315
f 599 	1442 	1443
f 1311 	322 	1310
f 1437 	1436 	1378
f 1448 	1437 	1378
f 394 	393 	1355
f 393 	81 	1355
f 1450 	394 	1355
f 1451 	1450 	1355
f 1452 	1355 	1453
f 1432 	1431 	1378
f 1429 	1428 	1378
f 1428 	1449 	1378
f 1449 	1448 	1378
f 1355 	1378 	1436
f 1436 	1435 	1355
f 1453 	1355 	1454
f 1452 	1451 	1355
f 46 	45 	1355
f 1397 	1399 	1150
f 1399 	1400 	1150
f 1400 	1401 	1150
f 1403 	1404 	1150
f 58 	1150 	1406
f 1243 	1419 	1420
f 1243 	1420 	1333
f 1125 	1124 	1421
f 1421 	1124 	1420
f 1459 	1150 	1458
f 75 	1150 	1459
f 75 	77 	1150
f 1462 	1174 	1461
f 1463 	1174 	1462
f 1466 	1150 	1465
f 783 	119 	120
f 1467 	1174 	404
f 1469 	1174 	1468
f 1471 	1174 	1470
f 1460 	1174 	1471
f 1470 	1174 	1469
f 689 	29 	1174
f 336 	1230 	1420
f 1333 	1420 	1230
f 1382 	1381 	1357
f 1358 	1357 	1381
f 23 	24 	1174
f 1460 	1461 	1174
f 1464 	1150 	1463
f 1465 	1150 	1464
f 1455 	1150 	1466
f 1456 	1150 	1455
f 1457 	1150 	1456
f 1458 	1150 	1457
f 1174 	1463 	1150
f 1421 	1417 	1376
f 1174 	8 	689
f 1376 	1146 	1421
f 8 	1174 	1355
f 1230 	336 	1231
f 335 	1231 	336
f 1358 	1402 	1359
f 1358 	1381 	1402
f 1429 	1430 	1457
f 1457 	1430 	1431
f 1435 	1462 	1434
f 1436 	1462 	1435
f 1449 	1466 	1448
f 238 	322 	1248
f 1455 	1466 	1428
f 238 	1247 	1249
f 1429 	1456 	1428
f 1455 	1428 	1456
f 1456 	1429 	1457
f 1251 	244 	1250
f 1457 	1431 	1458
f 244 	1251 	245
f 1252 	245 	1251
f 1458 	1431 	1432
f 1458 	1432 	1459
f 245 	1252 	1253
f 67 	75 	1432
f 1459 	1432 	75
f 602 	1446 	603
f 1434 	1461 	1433
f 1460 	1433 	1461
f 1461 	1434 	1462
f 251 	1256 	1255
f 1323 	661 	1043
f 663 	661 	1323
f 409 	1174 	408
f 410 	1174 	409
f 411 	1174 	410
f 408 	1174 	407
f 402 	1174 	411
f 667 	1473 	653
f 428 	1149 	427
f 1027 	427 	1149
f 430 	1149 	429
f 429 	1149 	428
f 269 	1267 	1268
f 432 	1149 	431
f 433 	1149 	432
f 269 	1268 	1269
f 656 	1474 	667
f 251 	1269 	1256
f 433 	434 	1149
f 431 	1149 	430
f 656 	1443 	1474
f 436 	1149 	435
f 435 	1149 	434
f 667 	1474 	1473
f 437 	1149 	436
f 438 	1149 	437
f 439 	1149 	438
f 440 	1149 	439
f 442 	1149 	440
f 1474 	1443 	1473
f 1273 	1274 	280
f 1325 	666 	663
f 280 	1274 	1275
f 1326 	668 	666
f 670 	668 	1326
f 1328 	672 	670
f 672 	1328 	674
f 1330 	676 	674
f 1329 	1330 	674
f 1294 	308 	1279
f 446 	1149 	442
f 1149 	446 	640
f 297 	1284 	1285
f 470 	689 	467
f 653 	1473 	1444
f 471 	689 	470
f 297 	1285 	1286
f 678 	467 	689
f 476 	689 	474
f 301 	1286 	1287
f 477 	689 	476
f 480 	689 	477
f 474 	689 	471
f 482 	689 	480
f 15 	689 	482
f 16 	689 	15
f 1393 	79 	1198
f 71 	1198 	79
f 1393 	1198 	1199
f 1393 	1199 	1394
f 1444 	601 	600
f 1394 	1199 	1200
f 1394 	1200 	1396
f 1396 	1200 	1201
f 1396 	1201 	1397
f 1397 	1201 	1202
f 1397 	1202 	1399
f 1204 	1400 	1399
f 1204 	1399 	1202
f 1206 	1401 	1400
f 1206 	1400 	1204
f 1208 	1403 	1401
f 1208 	1401 	1206
f 1170 	559 	603
f 1209 	1404 	1403
f 1209 	1403 	1208
f 1211 	1406 	1404
f 1211 	1404 	1209
f 1302 	312 	1300
f 1215 	57 	1214
f 57 	1215 	59
f 1217 	59 	1215
f 1218 	60 	59
f 1218 	59 	1217
f 60 	1218 	63
f 1220 	63 	1218
f 316 	315 	1309
f 1221 	64 	63
f 1221 	63 	1220
f 316 	1309 	1310
f 1406 	1211 	58
f 1214 	58 	1211
f 597 	596 	1441
f 1440 	1441 	596
f 1247 	238 	1248
f 597 	1441 	598
f 1442 	598 	1441
f 1330 	1334 	676
f 679 	676 	1334
f 680 	679 	1334
f 598 	1442 	599
f 1336 	681 	680
f 1336 	1337 	681
f 600 	653 	1444
f 1444 	1473 	1443
f 1281 	289 	1280
f 1445 	601 	1444
f 1340 	687 	686
f 602 	601 	1446
f 1445 	1446 	601
f 1340 	1361 	687
f 688 	687 	1361
f 688 	1361 	717
f 1447 	603 	1446
f 690 	744 	1077
f 1447 	1170 	603
f 1362 	690 	1077
f 691 	690 	1362
f 1438 	1439 	594
f 1365 	693 	692
f 1440 	596 	595
f 694 	693 	1365
f 1367 	695 	694
f 695 	1367 	696
f 1369 	697 	696
f 697 	1369 	101
f 101 	65 	697
f 1438 	594 	1472
f 594 	593 	1472
f 595 	594 	1439
f 853 	708 	1162
f 709 	1163 	1162
f 709 	1162 	708
f 595 	1439 	1440
f 1163 	709 	1164
f 710 	1164 	709
f 711 	1165 	1164
f 711 	1164 	710
f 1165 	711 	1166
f 712 	1166 	711
f 713 	1167 	1166
f 713 	1166 	712
f 1167 	713 	1168
f 714 	1168 	713
f 715 	1169 	1168
f 715 	1168 	714
f 1169 	715 	1171
f 716 	1171 	715
f 1171 	716 	1544
f 1056 	1182 	1181
f 1056 	1181 	1054
f 1182 	1056 	1184
f 1058 	1184 	1056
f 1060 	1186 	1184
f 1060 	1184 	1058
f 96 	784 	1060
f 1186 	1060 	784
f 639 	1485 	1486
f 639 	1486 	1475
f 1331 	1123 	1187
f 1188 	444 	1341
f 1188 	1341 	1189
f 1342 	1189 	1341
f 1189 	1342 	1190
f 1343 	1190 	1342
f 1344 	1191 	1190
f 1344 	1190 	1343
f 1191 	1344 	1192
f 1345 	1192 	1344
f 1346 	1193 	1192
f 1346 	1192 	1345
f 1462 	1436 	1463
f 1347 	1194 	1193
f 1347 	1193 	1346
f 1437 	1464 	1436
f 1463 	1436 	1464
f 1194 	1347 	1187
f 1331 	1187 	1347
f 1464 	1437 	1448
f 1464 	1448 	1465
f 1465 	1448 	1466
f 1195 	1374 	1196
f 1375 	1196 	1374
f 1449 	1428 	1466
f 1370 	1197 	1375
f 1196 	1375 	1197
f 1452 	1469 	1451
f 1453 	1469 	1452
f 1447 	1446 	1151
f 1454 	1471 	1453
f 1460 	1471 	1454
f 1460 	1454 	1433
f 1173 	1170 	1151
f 1467 	404 	1450
f 1175 	1173 	1151
f 1451 	1468 	1450
f 1467 	1450 	1468
f 1180 	1151 	1183
f 1180 	1175 	1151
f 1468 	1451 	1469
f 1453 	1470 	1469
f 1183 	1151 	1185
f 1470 	1453 	1471
f 829 	1491 	1477
f 631 	1477 	1478
f 631 	1478 	1479
f 1494 	1495 	1407
f 1495 	1496 	1407
f 1493 	1494 	1407
f 1496 	509 	1407
f 1475 	604 	639
f 509 	510 	1407
f 1498 	1352 	1497
f 1499 	1352 	1498
f 1500 	1352 	1499
f 1503 	1492 	1407
f 1492 	1493 	1407
f 1505 	1352 	1504
f 1508 	1352 	1507
f 1506 	1352 	1505
f 1497 	1352 	1508
f 1506 	1507 	1352
f 1543 	649 	1352
f 520 	1504 	1352
f 646 	527 	1487
f 1488 	650 	1487
f 646 	1487 	650
f 1488 	1489 	650
f 723 	650 	1489
f 723 	1489 	1490
f 1491 	829 	1490
f 638 	1485 	639
f 1076 	558 	139
f 629 	829 	1477
f 629 	1477 	631
f 130 	131 	795
f 633 	632 	1480
f 1481 	634 	1480
f 633 	1480 	634
f 635 	634 	1482
f 1481 	1482 	634
f 1483 	636 	1482
f 636 	635 	1482
f 637 	636 	1484
f 1483 	1484 	636
f 805 	135 	136
f 936 	146 	328
f 935 	146 	936
f 637 	1484 	1485
f 638 	637 	1485
f 136 	807 	805
f 347 	938 	937
f 938 	347 	939
f 939 	352 	940
f 1490 	725 	723
f 118 	782 	117
f 725 	1490 	829
f 940 	352 	132
f 118 	119 	782
f 783 	782 	119
f 359 	941 	360
f 1271 	360 	275
f 944 	363 	945
f 793 	791 	129
f 947 	946 	366
f 130 	795 	129
f 793 	129 	795
f 1509 	830 	1542
f 1312 	776 	131
f 1509 	1510 	830
f 831 	830 	1510
f 1510 	530 	831
f 137 	807 	136
f 807 	137 	138
f 116 	780 	115
f 815 	139 	140
f 275 	360 	941
f 930 	815 	141
f 140 	141 	815
f 941 	359 	942
f 930 	141 	142
f 932 	142 	143
f 144 	933 	143
f 932 	143 	933
f 933 	144 	934
f 145 	934 	144
f 365 	946 	945
f 145 	146 	934
f 1207 	1205 	1152
f 1212 	1210 	1152
f 1210 	1207 	1152
f 328 	339 	937
f 1212 	1152 	1213
f 339 	347 	937
f 349 	939 	347
f 349 	352 	939
f 1395 	1152 	1398
f 362 	943 	361
f 363 	943 	362
f 1411 	1151 	1412
f 364 	945 	363
f 1413 	1151 	1414
f 1412 	1151 	1413
f 1414 	1151 	1415
f 1439 	1438 	1151
f 1415 	1151 	1416
f 1422 	1172 	1423
f 1518 	865 	864
f 1425 	1424 	1172
f 1520 	866 	865
f 866 	1520 	867
f 1516 	1517 	862
f 1427 	1151 	1411
f 1518 	864 	863
f 365 	366 	946
f 366 	948 	947
f 1512 	858 	1511
f 950 	949 	369
f 858 	1512 	859
f 1513 	859 	1512
f 942 	359 	361
f 369 	370 	950
f 1514 	860 	859
f 1514 	859 	1513
f 860 	1514 	861
f 1515 	861 	1514
f 951 	950 	370
f 363 	944 	943
f 1516 	862 	861
f 1516 	861 	1515
f 952 	951 	372
f 371 	372 	951
f 372 	373 	952
f 953 	952 	373
f 863 	862 	1517
f 945 	364 	365
f 373 	954 	953
f 863 	1517 	1518
f 376 	956 	955
f 1519 	865 	1518
f 367 	948 	366
f 865 	1519 	1520
f 957 	956 	377
f 367 	368 	948
f 949 	948 	368
f 377 	378 	957
f 949 	368 	369
f 371 	951 	370
f 870 	1524 	871
f 1523 	869 	1522
f 382 	961 	960
f 870 	869 	1524
f 954 	373 	374
f 962 	961 	383
f 382 	383 	961
f 955 	954 	375
f 374 	375 	954
f 867 	1520 	1521
f 384 	963 	962
f 384 	962 	383
f 375 	376 	955
f 867 	1521 	868
f 1522 	868 	1521
f 384 	385 	963
f 964 	963 	385
f 868 	1522 	869
f 386 	965 	385
f 964 	385 	965
f 869 	1523 	1524
f 386 	387 	965
f 966 	965 	387
f 379 	958 	378
f 871 	1524 	1525
f 388 	1055 	387
f 966 	387 	1055
f 959 	958 	380
f 380 	958 	379
f 388 	389 	1055
f 1057 	1055 	389
f 959 	380 	960
f 381 	960 	380
f 389 	1059 	1057
f 382 	960 	381
f 1061 	1059 	391
f 1526 	872 	991
f 1062 	1061 	392
f 391 	392 	1061
f 1527 	873 	1526
f 872 	916 	991
f 873 	872 	1526
f 390 	1059 	389
f 1059 	390 	391
f 879 	1530 	1531
f 541 	1062 	392
f 879 	1531 	1532
f 1064 	542 	543
f 543 	544 	1064
f 547 	1068 	546
f 547 	548 	1068
f 551 	1070 	550
f 1062 	541 	542
f 1534 	1535 	885
f 1536 	887 	1535
f 1067 	546 	1068
f 885 	1535 	887
f 747 	84 	1543
f 1500 	1501 	1407
f 1501 	1502 	1407
f 1502 	1503 	1407
f 887 	1536 	1537
f 1472 	1151 	1438
f 889 	1537 	1538
f 1352 	1500 	1407
f 1439 	1151 	1440
f 1176 	342 	1543
f 1441 	1440 	1151
f 1441 	1151 	1442
f 1442 	1151 	1443
f 1179 	1176 	1543
f 1444 	1443 	1151
f 1445 	1444 	1151
f 493 	1405 	1048
f 1446 	1445 	1151
f 1447 	1151 	1170
f 1407 	1048 	1405
f 1416 	1151 	1472
f 545 	1066 	544
f 545 	546 	1066
f 716 	699 	1544
f 1486 	1485 	1172
f 1069 	550 	1070
f 1475 	1172 	1476
f 1424 	1423 	1172
f 1422 	1476 	1172
f 1546 	1572 	1547
f 1478 	1477 	1172
f 1547 	1571 	1548
f 558 	1076 	557
f 1479 	1478 	1172
f 1480 	1479 	1172
f 1550 	1549 	1569
f 1549 	1548 	1570
f 1570 	1569 	1549
f 1482 	1481 	1172
f 1481 	1480 	1172
f 1063 	1062 	542
f 1484 	1483 	1172
f 1483 	1482 	1172
f 542 	1064 	1063
f 1484 	1172 	1485
f 544 	1065 	1064
f 1569 	1568 	1550
f 1551 	1029 	1567
f 1545 	1030 	1551
f 1545 	1544 	698
f 1487 	1172 	1488
f 1488 	1172 	1489
f 1491 	1490 	1172
f 1477 	1491 	1172
f 1490 	1489 	1172
f 1553 	1552 	1579
f 1563 	1580 	1552
f 1554 	1553 	1578
f 1579 	1578 	1553
f 1502 	1556 	1557
f 1578 	1577 	1554
f 1557 	1558 	1502
f 1398 	1152 	1511
f 1511 	1152 	1512
f 1514 	1513 	1152
f 1558 	1573 	1546
f 1557 	1574 	1558
f 1515 	1514 	1152
f 1558 	1492 	1503
f 1517 	1516 	1152
f 1516 	1515 	1152
f 1493 	1492 	1547
f 1546 	1547 	1492
f 1518 	1517 	1152
f 1518 	1152 	1519
f 1493 	1547 	1548
f 1493 	1548 	1494
f 1494 	1548 	1549
f 1521 	1520 	1152
f 1519 	1152 	1520
f 1496 	1550 	509
f 1521 	1152 	1522
f 1523 	1522 	1152
f 1499 	1553 	1554
f 1524 	1523 	1152
f 1499 	1554 	1555
f 1499 	1555 	1500
f 1500 	1555 	1556
f 1558 	1503 	1502
f 1546 	1492 	1558
f 1526 	1078 	1527
f 1529 	1078 	1530
f 1532 	1531 	1078
f 1531 	1530 	1078
f 1040 	1036 	1564
f 1534 	1533 	1078
f 1533 	1532 	1078
f 1507 	1561 	1562
f 1565 	1564 	1036
f 1534 	1078 	1535
f 1563 	1508 	1562
f 1564 	1585 	1040
f 1560 	1559 	1584
f 1535 	1078 	1536
f 1537 	1536 	1078
f 1538 	1537 	1078
f 1539 	1538 	1078
f 1540 	1539 	1078
f 1585 	1584 	1559
f 1560 	1583 	1561
f 1563 	1562 	1581
f 1581 	1580 	1563
f 1561 	1582 	1562
f 1509 	1542 	1078
f 1542 	1541 	1078
f 1540 	1078 	1541
f 1566 	1308 	1565
f 1054 	1308 	1566
f 1559 	1040 	1585
f 1565 	1033 	1566
f 1172 	527 	525
f 1504 	520 	1559
f 520 	1040 	1559
f 1560 	1505 	1559
f 1504 	1559 	1505
f 1505 	1560 	1561
f 527 	1172 	1487
f 1507 	1562 	1508
f 530 	1510 	1078
f 1510 	1509 	1078
f 1494 	1549 	1495
f 531 	1078 	532
f 530 	1078 	531
f 1495 	1549 	1550
f 1495 	1550 	1496
f 532 	1078 	533
f 533 	1078 	534
f 534 	1078 	535
f 1028 	509 	1550
f 1508 	1563 	1497
f 1497 	1552 	1498
f 1553 	1498 	1552
f 537 	1172 	538
f 539 	538 	1172
f 1499 	1498 	1553
f 1172 	525 	540
f 540 	539 	1172
f 1556 	1501 	1500
f 1502 	1501 	1556
f 1172 	537 	536
f 535 	1078 	536
f 1505 	1561 	1506
f 1506 	1561 	1507
f 975 	1525 	1152
f 1525 	1524 	1152
f 1552 	1497 	1563
f 1171 	1544 	1295
f 977 	1152 	979
f 1295 	1544 	1296
f 1545 	1296 	1544
f 980 	979 	1152
f 981 	980 	1152
f 982 	981 	1152
f 1296 	1545 	1299
f 1551 	1299 	1545
f 1551 	1567 	1299
f 1152 	1078 	983
f 1305 	1564 	1565
f 1307 	1305 	1565
f 1308 	1307 	1565
f 987 	1078 	988
f 988 	1078 	991
f 1181 	1308 	1054
f 1299 	1567 	1314
f 1568 	1315 	1314
f 1568 	1314 	1567
f 1528 	1078 	1529
f 1528 	1527 	1078
f 1569 	1316 	1315
f 1569 	1315 	1568
f 544 	1066 	1065
f 1570 	1317 	1316
f 1570 	1316 	1569
f 1571 	1318 	1317
f 1571 	1317 	1570
f 1572 	1319 	1318
f 1572 	1318 	1571
f 1573 	1320 	1319
f 1573 	1319 	1572
f 548 	1069 	1068
f 1574 	1321 	1320
f 1574 	1320 	1573
f 548 	550 	1069
f 1575 	1322 	1321
f 1575 	1321 	1574
f 1322 	1575 	1576
f 1322 	1576 	1383
f 1071 	1070 	552
f 551 	552 	1070
f 1577 	1384 	1383
f 1577 	1383 	1576
f 1578 	1385 	1384
f 1578 	1384 	1577
f 1071 	552 	1072
f 554 	1072 	552
f 1579 	1386 	1385
f 1579 	1385 	1578
f 1072 	554 	1073
f 555 	1073 	554
f 555 	556 	1073
f 1074 	1073 	556
f 1386 	1579 	1387
f 1580 	1387 	1579
f 1074 	556 	1075
f 1581 	1388 	1387
f 1581 	1387 	1580
f 1582 	1389 	1388
f 1582 	1388 	1581
f 1075 	557 	1076
f 1583 	1390 	1389
f 1583 	1389 	1582
f 1584 	1391 	1390
f 1584 	1390 	1583
f 1585 	1392 	1391
f 1585 	1391 	1584
f 1585 	1564 	1392
f 1305 	1392 	1564
f 1557 	1556 	1575
f 1576 	1575 	1556
f 1574 	1557 	1575
f 1556 	1555 	1576
f 1573 	1558 	1574
f 1572 	1546 	1573
f 1571 	1547 	1572
f 1028 	1550 	1568
f 1567 	1028 	1568
f 1570 	1548 	1571
f 1577 	1576 	1555
f 1555 	1554 	1577
f 1584 	1583 	1560
f 1582 	1561 	1583
f 1581 	1562 	1582
f 1579 	1552 	1580
f 1353 	1417 	846
f 1241 	320 	849
f 1158 	1418 	849
f 849 	1418 	1241
f 1241 	846 	320
f 1417 	1418 	1120
f 1358 	1172 	1357
f 852 	1161 	1158
f 852 	1158 	849
f 1264 	262 	1263
f 786 	1176 	784
f 1186 	784 	1176
f 1264 	1265 	262
f 788 	1176 	786
f 792 	1176 	790
f 794 	1176 	792
f 790 	1176 	788
f 1176 	794 	796
f 802 	1176 	800
f 804 	1176 	802
f 1267 	267 	1266
f 800 	1176 	798
f 808 	1176 	806
f 810 	811 	1176
f 1249 	240 	238
f 810 	1176 	808
f 342 	1176 	812
f 1249 	1250 	240
f 242 	240 	1250
f 814 	816 	342
f 1250 	244 	242
f 1253 	247 	245
f 247 	1254 	266
f 250 	251 	1255
f 819 	820 	342
f 1255 	1257 	250
f 253 	250 	1257
f 253 	1257 	255
f 1258 	255 	1257
f 1258 	1259 	255
f 257 	255 	1259
f 820 	821 	342
f 257 	1259 	259
f 1262 	259 	1259
f 824 	342 	823
f 825 	342 	824
f 1262 	1263 	259
f 261 	259 	1263
f 827 	342 	826
f 262 	261 	1263
f 828 	342 	827
f 1265 	263 	262
f 819 	342 	844
f 1195 	342 	821
f 1270 	274 	1265
f 263 	1265 	274
f 811 	812 	1176
f 814 	342 	812
f 816 	817 	342
f 342 	817 	818
f 342 	818 	822
f 822 	823 	342
f 825 	826 	342
f 844 	342 	828
f 1253 	1254 	247
f 1172 	536 	1078
f 40 	1355 	36
f 1526 	991 	1078
f 987 	986 	1078
f 986 	985 	1078
f 985 	984 	1078
f 984 	983 	1078
f 983 	982 	1152
f 977 	975 	1152
f 38 	37 	1355
f 36 	1355 	37
f 889 	1538 	1539
f 889 	1539 	890
f 1540 	891 	1539
f 890 	1539 	891
f 1203 	1004 	1152
f 1541 	892 	1540
f 891 	1540 	892
f 892 	1541 	1542
f 892 	1542 	893
f 1395 	1213 	1152
f 1528 	873 	1527
f 1216 	1151 	1219
f 1005 	1219 	1151
f 1006 	1005 	1151
f 876 	1528 	1529
f 1512 	1152 	1513
f 1530 	876 	1529
f 1205 	1203 	1152
f 1004 	1001 	1152
f 1001 	1002 	1152
f 1151 	1152 	1002
f 1002 	1006 	1151
f 1216 	1185 	1151
f 1355 	40 	39
f 458 	8 	460
f 41 	460 	8
f 1426 	1425 	1172
f 42 	41 	8
f 4 	44 	8
f 44 	43 	8
f 43 	42 	8
f 1011 	1172 	1012
f 1013 	1012 	1172
f 8 	1355 	3
f 45 	3 	1355
f 1016 	1015 	1151
f 46 	1355 	47
f 1017 	1151 	1427
f 1475 	1486 	1172
f 48 	47 	1355
f 48 	1355 	49
f 49 	1355 	39
f 50 	8 	51
f 52 	51 	8
f 1172 	1151 	1014
f 1015 	1014 	1151
f 1014 	1013 	1172
f 1011 	1426 	1172
f 1017 	1016 	1151
f 53 	52 	8
f 9 	8 	2
f 266 	1266 	267
f 200 	260 	1417
f 201 	200 	1417
f 260 	258 	1417
f 202 	201 	1417
f 204 	203 	1417
f 203 	202 	1417
f 1269 	271 	269
f 204 	1417 	205
f 271 	1269 	251
f 206 	198 	1120
f 1417 	1120 	198
f 275 	274 	1270
f 209 	208 	1120
f 208 	207 	1120
f 207 	206 	1120
f 210 	209 	1120
f 278 	1273 	280
f 211 	210 	1120
f 213 	212 	1120
f 212 	211 	1120
f 282 	1276 	284
f 205 	1417 	214
f 285 	284 	1277
f 1276 	1277 	284
f 285 	1277 	1278
f 285 	1278 	287
f 215 	214 	1417
f 216 	215 	1417
f 217 	216 	1417
f 198 	217 	1417
f 1278 	1279 	287
f 1120 	218 	213
f 1120 	161 	160
f 160 	159 	1120
f 158 	157 	1120
f 156 	155 	1120
f 153 	219 	1120
f 219 	218 	1120
f 289 	1281 	1282
f 289 	1282 	291
f 291 	1282 	293
f 293 	1284 	295
f 220 	1417 	221
f 237 	1417 	220
f 221 	1417 	222
f 295 	1284 	297
f 223 	1417 	224
f 222 	1417 	223
f 297 	1286 	299
f 246 	243 	1417
f 225 	224 	1417
f 299 	1286 	301
f 301 	1288 	302
f 302 	1288 	303
f 226 	265 	1417
f 227 	226 	1417
f 303 	1290 	304
f 229 	228 	1417
f 228 	227 	1417
f 230 	229 	1417
f 304 	1290 	305
f 1291 	305 	1290
f 231 	230 	1417
f 306 	305 	1292
f 1291 	1292 	305
f 232 	231 	1417
f 306 	1292 	307
f 199 	233 	1417
f 234 	199 	1417
f 1293 	1272 	307
f 235 	234 	1417
f 236 	1417 	237
f 308 	287 	1279
f 225 	1417 	239
f 309 	1298 	310
f 310 	1298 	311
f 241 	239 	1417
f 243 	241 	1417
f 246 	1417 	248
f 249 	248 	1417
f 252 	249 	1417
f 254 	252 	1417
f 256 	254 	1417
f 258 	256 	1417
f 317 	316 	1310
f 317 	1310 	322
f 265 	264 	846
f 283 	846 	286
f 846 	1417 	265
f 776 	1312 	777
f 1313 	777 	1312
f 270 	268 	846
f 1313 	1280 	777
f 272 	270 	846
f 273 	272 	846
f 277 	276 	846
f 276 	273 	846
f 281 	279 	846
f 279 	277 	846
f 286 	846 	264
f 283 	281 	846
f 290 	288 	846
f 152 	846 	288
f 126 	787 	120
f 290 	846 	292
f 294 	292 	846
f 789 	787 	127
f 298 	296 	846
f 296 	294 	846
f 789 	127 	791
f 846 	268 	300
f 300 	298 	846
f 128 	129 	791
f 197 	1080 	358
f 795 	131 	776
f 134 	801 	133
f 803 	801 	135
f 134 	135 	801
f 135 	805 	803
f 807 	138 	809
f 780 	809 	115
f 139 	813 	1076
f 815 	813 	139
f 142 	931 	930
f 931 	142 	932
f 146 	935 	934
f 328 	937 	936
f 797 	940 	132
f 785 	783 	120
f 120 	787 	785
f 126 	127 	787
f 128 	791 	127
f 797 	132 	799
f 133 	799 	132
f 799 	133 	801
f 138 	115 	809
f 780 	116 	781
f 117 	781 	116
f 117 	782 	781
# 3202 faces

 #end of obj_0

